<svg width="24" height="22" viewBox="0 0 24 22" fill="none" xmlns="http://www.w3.org/2000/svg">
<path d="M17.4 0C15.25 0.00332031 13.2359 1.05195 12 2.81113C10.7641 1.05195 8.75 0.00332031 6.6 0C3.08398 0 0 3.27129 0 7C0 10.634 2.05195 14.3768 5.93438 17.824C7.7332 19.4182 9.70645 20.8039 11.8164 21.9553C11.9316 22.0146 12.0684 22.0146 12.1836 21.9553C14.2928 20.8039 16.2654 19.418 18.0637 17.824C21.948 14.3768 24 10.634 24 7C24 3.27129 20.916 0 17.4 0V0ZM12 21.1451C10.5309 20.3344 0.8 14.6703 0.8 7C0.8 3.69727 3.50996 0.8 6.6 0.8C8.69336 0.803711 10.623 1.93301 11.6516 3.75645C11.7285 3.87402 11.8596 3.94473 12 3.94473C12.1404 3.94473 12.2715 3.87402 12.3484 3.75645C13.377 1.93301 15.3066 0.803711 17.4 0.8C20.49 0.8 23.2 3.69727 23.2 7C23.2 14.6703 13.4691 20.3344 12 21.1451Z" fill="#851FFF"/>
</svg>
