<svg width="12" height="18" viewBox="0 0 12 18" fill="none" xmlns="http://www.w3.org/2000/svg">
<path d="M5.8 3C4.2536 3 3 4.2536 3 5.8C3 7.3464 4.2536 8.6 5.8 8.6C7.34565 8.59825 8.59825 7.34565 8.6 5.8C8.6 4.2536 7.3464 3 5.8 3ZM5.8 7.8C4.69545 7.8 3.8 6.90455 3.8 5.8C3.8 4.69545 4.69545 3.8 5.8 3.8C6.904 3.8013 7.7987 4.696 7.8 5.8C7.8 6.90455 6.90455 7.8 5.8 7.8Z" fill="#000046"/>
<path d="M6 0C2.68627 0 0 2.68628 0 6C0 9.2022 5.5155 17.514 5.7504 17.8665C5.80605 17.9499 5.89972 18 6 18C6.10027 18 6.19395 17.9499 6.2496 17.8665C6.4845 17.514 12 9.2022 12 6C12 2.68628 9.31372 0 6 0ZM6 17.1519C4.9065 15.4653 0.6 8.652 0.6 6C0.603487 3.01909 3.01909 0.603488 6 0.6C8.98091 0.603488 11.3965 3.01909 11.4 6C11.4 8.6514 7.0935 15.4653 6 17.1519Z" fill="#000046"/>
</svg>
