<svg width="189" height="61" viewBox="0 0 189 61" fill="none" xmlns="http://www.w3.org/2000/svg">
<path d="M13.6614 59.2544C13.1821 59.2544 12.7144 59.2485 12.2389 59.2384C11.2537 59.2261 10.2709 59.1441 9.29847 58.9932C8.3917 58.8438 7.51329 58.5662 6.69221 58.1694C5.87865 57.7757 5.13664 57.2596 4.49455 56.6408C3.84318 56.0292 3.3009 55.32 2.88916 54.5411C2.4729 53.7571 2.18481 52.9168 2.03496 52.0494C1.87311 51.1174 1.78556 50.1749 1.77303 49.2301C1.76306 48.913 1.75 47.8574 1.75 47.8574V13.1241C1.75 13.1241 1.76391 12.0846 1.77311 11.7791C1.78511 10.8359 1.87216 9.89497 2.0335 8.96437C2.18364 8.09459 2.47195 7.25184 2.88844 6.4653C3.29866 5.68692 3.83794 4.97712 4.48538 4.36339C5.1321 3.74384 5.8765 3.22508 6.69144 2.82605C7.51064 2.43043 8.38738 2.15474 9.29233 2.0082C10.268 1.85568 11.2542 1.77322 12.2427 1.76152L13.6622 1.74316H175.331L176.767 1.76226C177.746 1.77339 178.723 1.8551 179.69 2.00673C180.605 2.1551 181.491 2.43271 182.319 2.83046C183.951 3.63463 185.279 4.9069 186.118 6.46896C186.527 7.25008 186.811 8.08596 186.959 8.94822C187.122 9.88644 187.214 10.8348 187.234 11.7858C187.238 12.2116 187.238 12.669 187.238 13.1241C187.25 13.688 187.25 14.2246 187.25 14.7657V46.2333C187.25 46.7796 187.25 47.3125 187.238 47.8499C187.238 48.3388 187.238 48.7868 187.231 49.2478C187.213 50.1817 187.124 51.1131 186.962 52.0346C186.815 52.9083 186.529 53.7551 186.113 54.5455C185.698 55.3161 185.159 56.0192 184.515 56.629C183.872 57.2513 183.129 57.7704 182.314 58.1665C181.488 58.5664 180.603 58.845 179.69 58.9932C178.717 59.145 177.735 59.2269 176.749 59.2384C176.289 59.2485 175.807 59.2544 175.338 59.2544L173.633 59.2574L13.6614 59.2544Z" fill="#000046"/>
<path d="M35.9247 30.9256C35.9406 29.6049 36.2691 28.3102 36.8797 27.1616C37.4901 26.0129 38.3627 25.0479 39.4163 24.3562C38.747 23.3355 37.8641 22.4954 36.8374 21.9028C35.8109 21.3101 34.6691 20.9814 33.5028 20.9424C31.0146 20.6635 28.6026 22.5322 27.3347 22.5322C26.0423 22.5322 24.0902 20.9701 21.9882 21.0162C20.6284 21.0632 19.3034 21.4853 18.1419 22.2417C16.9804 22.9982 16.0222 24.0628 15.3608 25.3322C12.4952 30.63 14.6326 38.4162 17.3777 42.6985C18.751 44.7954 20.356 47.1378 22.4562 47.0548C24.5113 46.9638 25.2789 45.6553 27.7597 45.6553C30.2175 45.6553 30.9376 47.0548 33.0804 47.0019C35.2857 46.9638 36.675 44.8957 38.0002 42.7789C38.987 41.2847 39.7462 39.6333 40.25 37.886C38.9688 37.3072 37.8755 36.3387 37.1063 35.101C36.3371 33.8633 35.9262 32.4111 35.9247 30.9256Z" fill="white"/>
<path d="M33.1942 17.0465C34.4925 15.694 35.1321 13.9554 34.9772 12.2002C32.9935 12.381 31.1614 13.2037 29.8455 14.5044C29.202 15.1399 28.7094 15.879 28.3953 16.6799C28.0814 17.4805 27.9523 18.3272 28.0157 19.1713C29.0078 19.1802 29.9893 18.9935 30.8863 18.6255C31.7832 18.2575 32.5725 17.7175 33.1942 17.0465Z" fill="white"/>
<path d="M61.9748 40.1321H55.2279L53.6077 45.314H50.75L57.1405 26.1426H60.1095L66.5 45.314H63.5935L61.9748 40.1321ZM55.9266 37.741H61.2746L58.6383 29.3312H58.5644L55.9266 37.741Z" fill="white"/>
<path d="M80.5 38.6698C80.5 43.1109 78.337 45.9642 75.0729 45.9642C74.246 46.0117 73.4237 45.8024 72.7 45.3603C71.9764 44.918 71.3807 44.2608 70.9811 43.4639H70.9194V50.5425H68.25V31.5234H70.8339V33.9003H70.883C71.3009 33.1072 71.9067 32.4534 72.6358 32.0084C73.3649 31.5636 74.1903 31.3442 75.0238 31.3737C78.3243 31.3739 80.5 34.2411 80.5 38.6698ZM77.7562 38.6698C77.7562 35.7763 76.3957 33.8741 74.3196 33.8741C72.28 33.8741 70.9082 35.8164 70.9082 38.6698C70.9082 41.5493 72.28 43.4777 74.3196 43.4777C76.3957 43.4777 77.7562 41.5894 77.7562 38.6698Z" fill="white"/>
<path d="M96.25 38.6698C96.25 43.1109 94.0871 45.9642 90.8229 45.9642C89.9961 46.0117 89.1738 45.8024 88.4501 45.3603C87.7264 44.918 87.1308 44.2608 86.7312 43.4639H86.6694V50.5425H84V31.5234H86.5838V33.9003H86.6329C87.0508 33.1072 87.6566 32.4534 88.3857 32.0084C89.1149 31.5636 89.9402 31.3442 90.7738 31.3737C94.0744 31.3737 96.25 34.2409 96.25 38.6698ZM93.5063 38.6698C93.5063 35.7763 92.1457 33.8741 90.0696 33.8741C88.0301 33.8741 86.6582 35.8164 86.6582 38.6698C86.6582 41.5493 88.0301 43.4777 90.0696 43.4777C92.1457 43.4777 93.5063 41.5894 93.5063 38.6698Z" fill="white"/>
<path d="M106.046 39.8355C106.248 41.6754 108.006 42.8834 110.408 42.8834C112.71 42.8834 114.366 41.6753 114.366 40.0165C114.366 38.5764 113.367 37.7142 111.002 37.1233L108.637 36.544C105.286 35.7211 103.731 34.1279 103.731 31.5425C103.731 28.3413 106.475 26.1426 110.371 26.1426C114.226 26.1426 116.87 28.3413 116.959 31.5425H114.202C114.037 29.6909 112.532 28.5734 110.332 28.5734C108.132 28.5734 106.627 29.7041 106.627 31.3499C106.627 32.6615 107.588 33.4333 109.94 34.0242L111.951 34.526C115.694 35.4263 117.25 36.9553 117.25 39.6691C117.25 43.1402 114.531 45.314 110.206 45.314C106.159 45.314 103.426 43.1911 103.25 39.8354L106.046 39.8355Z" fill="white"/>
<path d="M123.543 29.6289V32.9486H126V35.2288H123.543V42.9619C123.543 44.1633 124.035 44.7231 125.115 44.7231C125.407 44.7175 125.698 44.6953 125.987 44.6564V46.923C125.502 47.0215 125.008 47.0662 124.514 47.0561C121.899 47.0561 120.879 45.9894 120.879 43.269V35.2288H119V32.9486H120.879V29.6289H123.543Z" fill="white"/>
<path d="M127.75 38.3424C127.75 34.0613 130.143 31.3711 133.874 31.3711C137.618 31.3711 140 34.0613 140 38.3424C140 42.6355 137.631 45.314 133.874 45.314C130.119 45.314 127.75 42.6355 127.75 38.3424ZM137.299 38.3424C137.299 35.4056 136.022 33.6723 133.874 33.6723C131.727 33.6723 130.451 35.4189 130.451 38.3424C130.451 41.291 131.727 43.0112 133.874 43.0112C136.022 43.0112 137.299 41.291 137.299 38.3424Z" fill="white"/>
<path d="M143.5 31.5179H146.18V33.8661H146.245C146.426 33.1327 146.852 32.4846 147.452 32.0307C148.052 31.5768 148.788 31.3447 149.537 31.3735C149.86 31.3724 150.184 31.4079 150.5 31.4792V34.1281C150.092 34.002 149.665 33.9443 149.238 33.9569C148.829 33.9402 148.422 34.0127 148.045 34.1695C147.667 34.3263 147.327 34.5636 147.049 34.8651C146.771 35.1667 146.561 35.5254 146.433 35.9164C146.306 36.3075 146.263 36.7219 146.31 37.131V45.314H143.5V31.5179Z" fill="white"/>
<path d="M162.596 41.1487C162.226 43.6188 159.856 45.314 156.823 45.314C152.922 45.314 150.5 42.6618 150.5 38.4071C150.5 34.1391 152.935 31.3711 156.707 31.3711C160.417 31.3711 162.75 33.9571 162.75 38.0827V39.0396H153.279V39.2084C153.236 39.7092 153.296 40.2137 153.461 40.6883C153.624 41.1629 153.884 41.597 154.225 41.9616C154.567 42.326 154.98 42.6128 155.439 42.8026C155.897 42.9924 156.392 43.0809 156.886 43.0625C157.537 43.1244 158.19 42.9715 158.747 42.6266C159.305 42.2818 159.739 41.7635 159.983 41.1487H162.596ZM153.292 37.0877H159.995C160.02 36.6374 159.954 36.1868 159.798 35.7641C159.643 35.3415 159.404 34.956 159.095 34.6316C158.787 34.3075 158.415 34.0514 158.003 33.8797C157.593 33.7081 157.152 33.6245 156.707 33.6342C156.258 33.6315 155.814 33.7189 155.399 33.8913C154.985 34.0637 154.607 34.3178 154.29 34.6388C153.973 34.96 153.721 35.3416 153.55 35.762C153.378 36.1822 153.29 36.6327 153.292 37.0877Z" fill="white"/>
<path d="M52.7707 19.0503C52.6922 19.0503 52.6256 19.0261 52.5706 18.9777C52.5235 18.9212 52.5 18.8526 52.5 18.7719V10.8685C52.5 10.7798 52.5235 10.7112 52.5706 10.6628C52.6256 10.6063 52.6922 10.5781 52.7707 10.5781H55.4426C56.6275 10.5781 57.4828 10.8524 58.0085 11.4011C58.5343 11.9417 58.8089 12.7607 58.8325 13.858C58.8403 14.092 58.8442 14.4067 58.8442 14.8021C58.8442 15.1974 58.8403 15.5162 58.8325 15.7582C58.8089 16.5248 58.6834 17.1501 58.4558 17.6342C58.2361 18.1103 57.8869 18.4653 57.4083 18.6993C56.9296 18.9333 56.294 19.0503 55.5015 19.0503H52.7707ZM55.4426 18.0215C55.984 18.0215 56.4117 17.9449 56.7256 17.7916C57.0473 17.6382 57.2788 17.3962 57.42 17.0654C57.5691 16.7265 57.6515 16.2746 57.6672 15.7098C57.6829 15.2257 57.6907 14.9231 57.6907 14.8021C57.6907 14.673 57.6829 14.3744 57.6672 13.9064C57.6515 13.1076 57.4671 12.5267 57.114 12.1636C56.7609 11.7924 56.1841 11.6068 55.3837 11.6068H53.6535V18.0215H55.4426Z" fill="white"/>
<path d="M62.9692 19.1713C62.1061 19.1713 61.4351 18.9212 60.9565 18.4209C60.4857 17.9207 60.2346 17.255 60.2032 16.4239L60.1914 15.9035L60.2032 15.383C60.2346 14.56 60.4896 13.8984 60.9682 13.3981C61.4469 12.8898 62.1139 12.6356 62.9692 12.6356C63.8245 12.6356 64.4915 12.8898 64.9702 13.3981C65.4488 13.8984 65.7039 14.56 65.7353 15.383C65.7431 15.4718 65.747 15.6453 65.747 15.9035C65.747 16.1617 65.7431 16.3351 65.7353 16.4239C65.7039 17.255 65.4488 17.9207 64.9702 18.4209C64.4994 18.9212 63.8324 19.1713 62.9692 19.1713ZM62.9692 18.2394C63.4636 18.2394 63.852 18.078 64.1345 17.7552C64.4248 17.4325 64.5818 16.9685 64.6053 16.3634C64.6131 16.2827 64.6171 16.1294 64.6171 15.9035C64.6171 15.6775 64.6131 15.5242 64.6053 15.4435C64.5818 14.8384 64.4248 14.3744 64.1345 14.0517C63.852 13.7289 63.4636 13.5675 62.9692 13.5675C62.4749 13.5675 62.0825 13.7289 61.7922 14.0517C61.5018 14.3744 61.3488 14.8384 61.3331 15.4435L61.3214 15.9035L61.3331 16.3634C61.3488 16.9685 61.5018 17.4325 61.7922 17.7552C62.0825 18.078 62.4749 18.2394 62.9692 18.2394Z" fill="white"/>
<path d="M68.6843 19.0503C68.5823 19.0503 68.5038 19.0261 68.4489 18.9777C68.394 18.9293 68.3469 18.8526 68.3076 18.7477L66.6362 13.1318L66.6127 13.0108C66.6127 12.9382 66.6362 12.8777 66.6833 12.8293C66.7383 12.7808 66.7971 12.7566 66.8599 12.7566H67.3778C67.4562 12.7566 67.519 12.7808 67.5661 12.8293C67.621 12.8696 67.6563 12.914 67.672 12.9624L68.9785 17.5253L70.3792 13.0108C70.3949 12.9463 70.4302 12.8898 70.4852 12.8414C70.5401 12.7849 70.6146 12.7566 70.7088 12.7566H71.109C71.2032 12.7566 71.2777 12.7849 71.3326 12.8414C71.3876 12.8898 71.4229 12.9463 71.4386 13.0108L72.8392 17.5253L74.1458 12.9624C74.1536 12.922 74.1811 12.8777 74.2281 12.8293C74.2831 12.7808 74.3498 12.7566 74.4282 12.7566H74.9579C75.0207 12.7566 75.0756 12.7808 75.1227 12.8293C75.1698 12.8777 75.1933 12.9382 75.1933 13.0108L75.1698 13.1318L73.5102 18.7477C73.4709 18.8526 73.4238 18.9293 73.3689 18.9777C73.314 19.0261 73.2316 19.0503 73.1217 19.0503H72.6627C72.4508 19.0503 72.3213 18.9494 72.2743 18.7477L70.9089 14.4148L69.5435 18.7477C69.4808 18.9494 69.3474 19.0503 69.1433 19.0503H68.6843Z" fill="white"/>
<path d="M76.7677 19.0503C76.6892 19.0503 76.6225 19.0261 76.5676 18.9777C76.5205 18.9212 76.497 18.8526 76.497 18.7719V13.035C76.497 12.9543 76.5205 12.8898 76.5676 12.8414C76.6225 12.7849 76.6892 12.7566 76.7677 12.7566H77.3209C77.3994 12.7566 77.4622 12.7849 77.5092 12.8414C77.5642 12.8898 77.5916 12.9543 77.5916 13.035V13.5675C77.8192 13.269 78.086 13.039 78.392 12.8777C78.7059 12.7163 79.0943 12.6356 79.5573 12.6356C80.3106 12.6356 80.8952 12.8857 81.3111 13.386C81.7348 13.8782 81.9467 14.5358 81.9467 15.3588V18.7719C81.9467 18.8526 81.9192 18.9212 81.8643 18.9777C81.8172 19.0261 81.7544 19.0503 81.676 19.0503H81.0874C81.009 19.0503 80.9423 19.0261 80.8873 18.9777C80.8403 18.9212 80.8167 18.8526 80.8167 18.7719V15.4193C80.8167 14.8464 80.6794 14.4027 80.4048 14.088C80.138 13.7733 79.7495 13.616 79.2395 13.616C78.7451 13.616 78.3528 13.7773 78.0624 14.1001C77.7721 14.4148 77.6269 14.8545 77.6269 15.4193V18.7719C77.6269 18.8526 77.5995 18.9212 77.5445 18.9777C77.4975 19.0261 77.4347 19.0503 77.3562 19.0503H76.7677Z" fill="white"/>
<path d="M83.9176 19.0503C83.8391 19.0503 83.7724 19.0261 83.7175 18.9777C83.6704 18.9212 83.6469 18.8526 83.6469 18.7719V10.7354C83.6469 10.6547 83.6704 10.5902 83.7175 10.5418C83.7724 10.4853 83.8391 10.457 83.9176 10.457H84.4708C84.5492 10.457 84.612 10.4853 84.6591 10.5418C84.714 10.5902 84.7415 10.6547 84.7415 10.7354V18.7719C84.7415 18.8526 84.714 18.9212 84.6591 18.9777C84.612 19.0261 84.5492 19.0503 84.4708 19.0503H83.9176Z" fill="white"/>
<path d="M89.0043 19.1713C88.1412 19.1713 87.4702 18.9212 86.9916 18.4209C86.5208 17.9207 86.2697 17.255 86.2383 16.4239L86.2265 15.9035L86.2383 15.383C86.2697 14.56 86.5247 13.8984 87.0033 13.3981C87.482 12.8898 88.149 12.6356 89.0043 12.6356C89.8596 12.6356 90.5266 12.8898 91.0053 13.3981C91.4839 13.8984 91.739 14.56 91.7704 15.383C91.7782 15.4718 91.7821 15.6453 91.7821 15.9035C91.7821 16.1617 91.7782 16.3351 91.7704 16.4239C91.739 17.255 91.4839 17.9207 91.0053 18.4209C90.5345 18.9212 89.8675 19.1713 89.0043 19.1713ZM89.0043 18.2394C89.4987 18.2394 89.8871 18.078 90.1696 17.7552C90.4599 17.4325 90.6169 16.9685 90.6404 16.3634C90.6482 16.2827 90.6522 16.1294 90.6522 15.9035C90.6522 15.6775 90.6482 15.5242 90.6404 15.4435C90.6169 14.8384 90.4599 14.3744 90.1696 14.0517C89.8871 13.7289 89.4987 13.5675 89.0043 13.5675C88.51 13.5675 88.1176 13.7289 87.8273 14.0517C87.5369 14.3744 87.3839 14.8384 87.3682 15.4435L87.3565 15.9035L87.3682 16.3634C87.3839 16.9685 87.5369 17.4325 87.8273 17.7552C88.1176 18.078 88.51 18.2394 89.0043 18.2394Z" fill="white"/>
<path d="M94.9627 19.1713C94.5782 19.1713 94.2212 19.0906 93.8916 18.9293C93.562 18.7679 93.2992 18.55 93.103 18.2757C92.9147 17.9933 92.8205 17.6826 92.8205 17.3437C92.8205 16.8112 93.0324 16.3755 93.4561 16.0366C93.8877 15.6896 94.4683 15.4637 95.1981 15.3588L96.9519 15.1047V14.7537C96.9519 13.9306 96.4929 13.5191 95.5748 13.5191C95.2295 13.5191 94.947 13.5958 94.7273 13.7491C94.5076 13.8943 94.3428 14.0678 94.2329 14.2695C94.2094 14.3422 94.178 14.3946 94.1388 14.4269C94.1074 14.4591 94.0603 14.4753 93.9975 14.4753H93.4914C93.4208 14.4753 93.358 14.4511 93.3031 14.4027C93.256 14.3462 93.2325 14.2816 93.2325 14.209C93.2403 14.0154 93.3266 13.7975 93.4914 13.5554C93.664 13.3053 93.9269 13.0915 94.28 12.914C94.6331 12.7284 95.0686 12.6356 95.5865 12.6356C96.4654 12.6356 97.0971 12.8494 97.4816 13.2771C97.8661 13.6966 98.0583 14.2211 98.0583 14.8505V18.7719C98.0583 18.8526 98.0309 18.9212 97.9759 18.9777C97.9288 19.0261 97.8661 19.0503 97.7876 19.0503H97.2462C97.1677 19.0503 97.101 19.0261 97.0461 18.9777C96.999 18.9212 96.9754 18.8526 96.9754 18.7719V18.2515C96.8028 18.5097 96.5517 18.7275 96.2221 18.905C95.8926 19.0826 95.4728 19.1713 94.9627 19.1713ZM95.2099 18.2636C95.7199 18.2636 96.1358 18.0941 96.4575 17.7552C96.7871 17.4083 96.9519 16.9121 96.9519 16.2666V15.9277L95.5865 16.1334C95.0294 16.2141 94.6096 16.3513 94.3271 16.5449C94.0446 16.7305 93.9034 16.9685 93.9034 17.259C93.9034 17.5818 94.0328 17.8319 94.2918 18.0094C94.5507 18.1789 94.8568 18.2636 95.2099 18.2636Z" fill="white"/>
<path d="M101.987 19.1713C101.171 19.1713 100.555 18.897 100.139 18.3483C99.7229 17.7996 99.5032 17.1057 99.4797 16.2666L99.4679 15.9035L99.4797 15.5404C99.5032 14.7093 99.7229 14.0194 100.139 13.4707C100.555 12.914 101.171 12.6356 101.987 12.6356C102.795 12.6356 103.431 12.9301 103.894 13.5191V10.7354C103.894 10.6547 103.917 10.5902 103.964 10.5418C104.019 10.4853 104.086 10.457 104.164 10.457H104.729C104.808 10.457 104.871 10.4853 104.918 10.5418C104.973 10.5902 105 10.6547 105 10.7354V18.7719C105 18.8526 104.973 18.9212 104.918 18.9777C104.871 19.0261 104.808 19.0503 104.729 19.0503H104.2C104.121 19.0503 104.054 19.0261 104 18.9777C103.952 18.9212 103.929 18.8526 103.929 18.7719V18.2636C103.474 18.8687 102.826 19.1713 101.987 19.1713ZM102.234 18.191C102.775 18.191 103.18 18.0094 103.446 17.6463C103.721 17.2752 103.87 16.8354 103.894 16.3271C103.901 16.2383 103.905 16.085 103.905 15.8672C103.905 15.6412 103.901 15.4839 103.894 15.3951C103.878 14.9191 103.729 14.5035 103.446 14.1485C103.164 13.7935 102.76 13.616 102.234 13.616C101.677 13.616 101.269 13.7935 101.01 14.1485C100.759 14.5035 100.621 14.9715 100.598 15.5525L100.586 15.9035C100.586 17.4285 101.135 18.191 102.234 18.191Z" fill="white"/>
</svg>
