<svg width="150" height="53" viewBox="0 0 150 53" fill="none" xmlns="http://www.w3.org/2000/svg">
<g filter="url(#filter0_d_3140_313)">
<path d="M13.8366 44.6836C13.4739 44.6836 13.12 44.6791 12.7602 44.6715C12.0149 44.6623 11.2713 44.6004 10.5355 44.4866C9.84942 44.3739 9.1848 44.1646 8.56356 43.8654C7.94801 43.5685 7.38659 43.1793 6.90079 42.7127C6.40795 42.2515 5.99765 41.7166 5.68612 41.1293C5.37118 40.5381 5.1532 39.9044 5.03982 39.2503C4.91737 38.5474 4.85112 37.8367 4.84164 37.1243C4.8341 36.8852 4.82422 36.0891 4.82422 36.0891V9.89682C4.82422 9.89682 4.83474 9.11289 4.8417 8.88257C4.85078 8.17129 4.91665 7.46171 5.03872 6.75995C5.15232 6.10405 5.37046 5.46853 5.68557 4.87541C5.99595 4.28843 6.40399 3.75317 6.89385 3.29036C7.38316 2.82316 7.94638 2.43196 8.56298 2.13106C9.18279 1.83272 9.84615 1.62482 10.5308 1.51432C11.269 1.3993 12.0152 1.33712 12.7632 1.3283L13.8372 1.31445H136.158L137.244 1.32886C137.986 1.33725 138.724 1.39887 139.456 1.51321C140.148 1.6251 140.818 1.83444 141.445 2.13438C142.68 2.7408 143.685 3.70022 144.319 4.87817C144.629 5.46721 144.844 6.09754 144.956 6.74777C145.079 7.45529 145.149 8.17045 145.164 8.88756C145.167 9.20866 145.167 9.55357 145.167 9.89682C145.176 10.322 145.176 10.7267 145.176 11.1347V34.8644C145.176 35.2763 145.176 35.6782 145.167 36.0835C145.167 36.4522 145.167 36.79 145.161 37.1377C145.148 37.8419 145.081 38.5443 144.958 39.2391C144.847 39.898 144.63 40.5366 144.316 41.1326C144.002 41.7137 143.594 42.244 143.107 42.7038C142.621 43.173 142.058 43.5645 141.442 43.8632C140.816 44.1647 140.147 44.3749 139.456 44.4866C138.72 44.6011 137.977 44.6628 137.231 44.6715C136.883 44.6791 136.518 44.6836 136.163 44.6836L134.873 44.6859L13.8366 44.6836Z" fill="#202020"/>
<path d="M30.6813 23.3212C30.6933 22.3253 30.9418 21.3489 31.4038 20.4827C31.8657 19.6165 32.5259 18.8888 33.3231 18.3672C32.8167 17.5975 32.1487 16.9639 31.3719 16.5171C30.5952 16.0702 29.7313 15.8222 28.8488 15.7929C26.9663 15.5825 25.1413 16.9917 24.182 16.9917C23.2041 16.9917 21.7272 15.8138 20.1367 15.8485C19.1079 15.8839 18.1054 16.2023 17.2266 16.7727C16.3478 17.3431 15.6228 18.146 15.1224 19.1032C12.9542 23.0983 14.5714 28.9698 16.6484 32.1991C17.6875 33.7804 18.9018 35.5468 20.4909 35.4842C22.0458 35.4155 22.6266 34.4288 24.5035 34.4288C26.3631 34.4288 26.908 35.4842 28.5292 35.4443C30.1978 35.4155 31.249 33.856 32.2517 32.2597C32.9983 31.1329 33.5727 29.8877 33.9539 28.57C32.9845 28.1335 32.1573 27.4032 31.5754 26.4698C30.9933 25.5364 30.6824 24.4414 30.6813 23.3212Z" fill="white"/>
<path d="M28.6155 12.8548C29.5978 11.8348 30.0818 10.5238 29.9646 9.2002C28.4637 9.33653 27.0775 9.95693 26.0818 10.9378C25.595 11.417 25.2223 11.9744 24.9847 12.5783C24.7472 13.1821 24.6495 13.8205 24.6974 14.4571C25.448 14.4638 26.1907 14.323 26.8694 14.0455C27.548 13.768 28.1451 13.3608 28.6155 12.8548Z" fill="white"/>
<path d="M50.3912 30.2633H45.2865L44.0606 34.171H41.8984L46.7336 19.7139H48.98L53.8151 34.171H51.616L50.3912 30.2633ZM45.8152 28.4602H49.8615L47.8668 22.1184H47.8109L45.8152 28.4602Z" fill="white"/>
<path d="M64.4072 29.1611C64.4072 32.5102 62.7706 34.6619 60.301 34.6619C59.6753 34.6977 59.0532 34.5399 58.5056 34.2064C57.9581 33.8729 57.5074 33.3774 57.2051 32.7764H57.1583V38.1144H55.1387V23.7721H57.0937V25.5645H57.1309C57.447 24.9665 57.9054 24.4734 58.4571 24.1379C59.0087 23.8024 59.6332 23.637 60.2638 23.6592C62.761 23.6593 64.4072 25.8215 64.4072 29.1611ZM62.3312 29.1611C62.3312 26.9792 61.3018 25.5447 59.731 25.5447C58.1879 25.5447 57.1499 27.0095 57.1499 29.1611C57.1499 31.3326 58.1879 32.7868 59.731 32.7868C61.3018 32.7868 62.3312 31.3628 62.3312 29.1611Z" fill="white"/>
<path d="M76.3242 29.1611C76.3242 32.5102 74.6877 34.6619 72.2179 34.6619C71.5924 34.6977 70.9702 34.5399 70.4227 34.2064C69.8751 33.8729 69.4244 33.3774 69.1221 32.7764H69.0754V38.1144H67.0557V23.7721H69.0106V25.5645H69.0478C69.3639 24.9665 69.8223 24.4734 70.374 24.1379C70.9256 23.8024 71.5501 23.637 72.1808 23.6592C74.6781 23.6592 76.3242 25.8214 76.3242 29.1611ZM74.2483 29.1611C74.2483 26.9792 73.2188 25.5447 71.648 25.5447C70.1049 25.5447 69.0669 27.0095 69.0669 29.1611C69.0669 31.3326 70.1049 32.7868 71.648 32.7868C73.2188 32.7868 74.2483 31.3628 74.2483 29.1611Z" fill="white"/>
<path d="M83.7352 30.0397C83.8883 31.4272 85.2184 32.3381 87.0359 32.3381C88.7774 32.3381 90.0304 31.4271 90.0304 30.1761C90.0304 29.0902 89.2747 28.44 87.4854 27.9944L85.6961 27.5576C83.1609 26.937 81.9839 25.7356 81.9839 23.7859C81.9839 21.372 84.0599 19.7139 87.0076 19.7139C89.925 19.7139 91.9251 21.372 91.9923 23.7859H89.9066C89.7817 22.3897 88.6428 21.5469 86.9783 21.5469C85.3139 21.5469 84.175 22.3996 84.175 23.6407C84.175 24.6298 84.9024 25.2118 86.6819 25.6574L88.2031 26.0358C91.0357 26.7147 92.2127 27.8678 92.2127 29.9142C92.2127 32.5317 90.1553 34.171 86.8828 34.171C83.821 34.171 81.7536 32.5702 81.6201 30.0396L83.7352 30.0397Z" fill="white"/>
<path d="M96.9745 22.3428V24.8461H98.8334V26.5656H96.9745V32.3972C96.9745 33.3031 97.3467 33.7253 98.1639 33.7253C98.3846 33.7211 98.6048 33.7043 98.8239 33.675V35.3842C98.4565 35.4585 98.0831 35.4922 97.7094 35.4846C95.7303 35.4846 94.9584 34.6802 94.9584 32.6287V26.5656H93.5371V24.8461H94.9584V22.3428H96.9745Z" fill="white"/>
<path d="M100.157 28.9143C100.157 25.6859 101.968 23.6572 104.791 23.6572C107.624 23.6572 109.426 25.6859 109.426 28.9143C109.426 32.1517 107.633 34.1715 104.791 34.1715C101.95 34.1715 100.157 32.1517 100.157 28.9143ZM107.382 28.9143C107.382 26.6997 106.416 25.3926 104.791 25.3926C103.166 25.3926 102.201 26.7096 102.201 28.9143C102.201 31.1378 103.166 32.435 104.791 32.435C106.416 32.435 107.382 31.1378 107.382 28.9143Z" fill="white"/>
<path d="M112.074 23.768H114.102V25.5387H114.151C114.288 24.9857 114.611 24.4969 115.064 24.1546C115.518 23.8123 116.075 23.6373 116.642 23.659C116.887 23.6582 117.131 23.685 117.371 23.7388V25.7362C117.062 25.6412 116.739 25.5977 116.415 25.6072C116.106 25.5946 115.799 25.6493 115.513 25.7675C115.227 25.8857 114.97 26.0647 114.76 26.2921C114.549 26.5195 114.39 26.79 114.294 27.0848C114.197 27.3798 114.165 27.6922 114.2 28.0008V34.1715H112.074V23.768Z" fill="white"/>
<path d="M126.522 31.0305C126.242 32.8932 124.449 34.1715 122.154 34.1715C119.202 34.1715 117.37 32.1715 117.37 28.963C117.37 25.7446 119.212 23.6572 122.067 23.6572C124.874 23.6572 126.639 25.6074 126.639 28.7185V29.4401H119.472V29.5673C119.44 29.945 119.486 30.3254 119.61 30.6833C119.733 31.0412 119.931 31.3686 120.188 31.6435C120.447 31.9183 120.76 32.1346 121.107 32.2777C121.454 32.4209 121.828 32.4876 122.202 32.4737C122.694 32.5204 123.188 32.4051 123.61 32.145C124.032 31.885 124.36 31.4941 124.545 31.0305H126.522ZM119.482 27.9681H124.554C124.573 27.6285 124.523 27.2888 124.405 26.97C124.288 26.6513 124.107 26.3606 123.873 26.116C123.64 25.8715 123.359 25.6784 123.047 25.549C122.737 25.4196 122.403 25.3565 122.067 25.3638C121.727 25.3618 121.391 25.4277 121.077 25.5577C120.763 25.6877 120.478 25.8794 120.238 26.1214C119.998 26.3636 119.807 26.6514 119.677 26.9684C119.547 27.2853 119.481 27.625 119.482 27.9681Z" fill="white"/>
<path d="M43.4275 14.3659C43.3681 14.3659 43.3176 14.3476 43.2761 14.3111C43.2405 14.2685 43.2227 14.2168 43.2227 14.156V8.19606C43.2227 8.12913 43.2405 8.07741 43.2761 8.0409C43.3176 7.99831 43.3681 7.97701 43.4275 7.97701H45.4491C46.3456 7.97701 46.9927 8.18389 47.3905 8.59765C47.7883 9.00532 47.9961 9.62291 48.0139 10.4504C48.0198 10.6269 48.0228 10.8642 48.0228 11.1623C48.0228 11.4605 48.0198 11.7008 48.0139 11.8834C47.9961 12.4614 47.9011 12.933 47.7289 13.298C47.5627 13.657 47.2985 13.9248 46.9363 14.1012C46.5741 14.2777 46.0932 14.3659 45.4936 14.3659H43.4275ZM45.4491 13.5901C45.8587 13.5901 46.1823 13.5323 46.4198 13.4167C46.6632 13.3011 46.8383 13.1185 46.9452 12.8691C47.058 12.6135 47.1204 12.2728 47.1322 11.8469C47.1441 11.4818 47.15 11.2536 47.15 11.1623C47.15 11.065 47.1441 10.8398 47.1322 10.4869C47.1204 9.88455 46.9808 9.44646 46.7137 9.17265C46.4465 8.89275 46.0101 8.75281 45.4045 8.75281H44.0954V13.5901H45.4491Z" fill="white"/>
<path d="M51.1438 14.4572C50.4907 14.4572 49.9831 14.2685 49.6209 13.8913C49.2647 13.5141 49.0747 13.0121 49.051 12.3853L49.0421 11.9929L49.051 11.6004C49.0747 10.9798 49.2677 10.4808 49.6298 10.1036C49.992 9.72027 50.4967 9.5286 51.1438 9.5286C51.7909 9.5286 52.2956 9.72027 52.6578 10.1036C53.0199 10.4808 53.2129 10.9798 53.2366 11.6004C53.2426 11.6674 53.2455 11.7982 53.2455 11.9929C53.2455 12.1876 53.2426 12.3184 53.2366 12.3853C53.2129 13.0121 53.0199 13.5141 52.6578 13.8913C52.3015 14.2685 51.7969 14.4572 51.1438 14.4572ZM51.1438 13.7544C51.5178 13.7544 51.8117 13.6327 52.0255 13.3893C52.2451 13.1459 52.3639 12.7961 52.3817 12.3397C52.3876 12.2789 52.3906 12.1633 52.3906 11.9929C52.3906 11.8225 52.3876 11.7069 52.3817 11.6461C52.3639 11.1897 52.2451 10.8398 52.0255 10.5965C51.8117 10.3531 51.5178 10.2314 51.1438 10.2314C50.7698 10.2314 50.4729 10.3531 50.2532 10.5965C50.0336 10.8398 49.9178 11.1897 49.9059 11.6461L49.897 11.9929L49.9059 12.3397C49.9178 12.7961 50.0336 13.1459 50.2532 13.3893C50.4729 13.6327 50.7698 13.7544 51.1438 13.7544Z" fill="white"/>
<path d="M55.4679 14.3659C55.3907 14.3659 55.3314 14.3476 55.2898 14.3111C55.2482 14.2746 55.2126 14.2168 55.1829 14.1377L53.9183 9.90281L53.9005 9.81154C53.9005 9.75677 53.9183 9.71114 53.954 9.67463C53.9955 9.63812 54.04 9.61987 54.0875 9.61987H54.4794C54.5388 9.61987 54.5863 9.63812 54.6219 9.67463C54.6634 9.70505 54.6902 9.73852 54.702 9.77503L55.6906 13.2159L56.7503 9.81154C56.7622 9.76286 56.7889 9.72027 56.8305 9.68376C56.872 9.64117 56.9284 9.61987 56.9997 9.61987H57.3025C57.3737 9.61987 57.4301 9.64117 57.4717 9.68376C57.5132 9.72027 57.54 9.76286 57.5518 9.81154L58.6116 13.2159L59.6001 9.77503C59.6061 9.7446 59.6268 9.71114 59.6625 9.67463C59.704 9.63812 59.7545 9.61987 59.8139 9.61987H60.2146C60.2621 9.61987 60.3037 9.63812 60.3393 9.67463C60.3749 9.71114 60.3927 9.75677 60.3927 9.81154L60.3749 9.90281L59.1192 14.1377C59.0895 14.2168 59.0539 14.2746 59.0124 14.3111C58.9708 14.3476 58.9085 14.3659 58.8253 14.3659H58.478C58.3177 14.3659 58.2198 14.2898 58.1841 14.1377L57.1511 10.8703L56.118 14.1377C56.0705 14.2898 55.9696 14.3659 55.8152 14.3659H55.4679Z" fill="white"/>
<path d="M61.5839 14.3659C61.5246 14.3659 61.4741 14.3476 61.4325 14.3111C61.3969 14.2685 61.3791 14.2168 61.3791 14.156V9.82979C61.3791 9.76894 61.3969 9.72027 61.4325 9.68376C61.4741 9.64117 61.5246 9.61987 61.5839 9.61987H62.0025C62.0619 9.61987 62.1094 9.64117 62.145 9.68376C62.1865 9.72027 62.2073 9.76894 62.2073 9.82979V10.2314C62.3795 10.0062 62.5814 9.83283 62.8129 9.71114C63.0504 9.58945 63.3443 9.5286 63.6946 9.5286C64.2645 9.5286 64.7068 9.71722 65.0215 10.0945C65.3421 10.4656 65.5024 10.9615 65.5024 11.5822V14.156C65.5024 14.2168 65.4816 14.2685 65.4401 14.3111C65.4045 14.3476 65.357 14.3659 65.2976 14.3659H64.8523C64.7929 14.3659 64.7425 14.3476 64.7009 14.3111C64.6653 14.2685 64.6475 14.2168 64.6475 14.156V11.6278C64.6475 11.1958 64.5436 10.8611 64.3358 10.6238C64.1339 10.3865 63.84 10.2679 63.4541 10.2679C63.0801 10.2679 62.7832 10.3896 62.5636 10.633C62.3439 10.8703 62.234 11.2019 62.234 11.6278V14.156C62.234 14.2168 62.2133 14.2685 62.1717 14.3111C62.1361 14.3476 62.0886 14.3659 62.0292 14.3659H61.5839Z" fill="white"/>
<path d="M66.9936 14.3659C66.9343 14.3659 66.8838 14.3476 66.8422 14.3111C66.8066 14.2685 66.7888 14.2168 66.7888 14.156V8.09566C66.7888 8.03482 66.8066 7.98614 66.8422 7.94963C66.8838 7.90704 66.9343 7.88574 66.9936 7.88574H67.4122C67.4716 7.88574 67.5191 7.90704 67.5547 7.94963C67.5962 7.98614 67.617 8.03482 67.617 8.09566V14.156C67.617 14.2168 67.5962 14.2685 67.5547 14.3111C67.5191 14.3476 67.4716 14.3659 67.4122 14.3659H66.9936Z" fill="white"/>
<path d="M70.8423 14.4572C70.1892 14.4572 69.6816 14.2685 69.3195 13.8913C68.9632 13.5141 68.7732 13.0121 68.7495 12.3853L68.7406 11.9929L68.7495 11.6004C68.7732 10.9798 68.9662 10.4808 69.3284 10.1036C69.6905 9.72027 70.1952 9.5286 70.8423 9.5286C71.4895 9.5286 71.9941 9.72027 72.3563 10.1036C72.7184 10.4808 72.9114 10.9798 72.9351 11.6004C72.9411 11.6674 72.9441 11.7982 72.9441 11.9929C72.9441 12.1876 72.9411 12.3184 72.9351 12.3853C72.9114 13.0121 72.7184 13.5141 72.3563 13.8913C72.0001 14.2685 71.4954 14.4572 70.8423 14.4572ZM70.8423 13.7544C71.2164 13.7544 71.5102 13.6327 71.724 13.3893C71.9437 13.1459 72.0624 12.7961 72.0802 12.3397C72.0861 12.2789 72.0891 12.1633 72.0891 11.9929C72.0891 11.8225 72.0861 11.7069 72.0802 11.6461C72.0624 11.1897 71.9437 10.8398 71.724 10.5965C71.5102 10.3531 71.2164 10.2314 70.8423 10.2314C70.4683 10.2314 70.1714 10.3531 69.9518 10.5965C69.7321 10.8398 69.6163 11.1897 69.6044 11.6461L69.5955 11.9929L69.6044 12.3397C69.6163 12.7961 69.7321 13.1459 69.9518 13.3893C70.1714 13.6327 70.4683 13.7544 70.8423 13.7544Z" fill="white"/>
<path d="M75.3505 14.4572C75.0596 14.4572 74.7895 14.3963 74.5401 14.2746C74.2908 14.1529 74.0919 13.9887 73.9434 13.7818C73.8009 13.5688 73.7297 13.3346 73.7297 13.079C73.7297 12.6774 73.89 12.3488 74.2106 12.0933C74.5371 11.8316 74.9765 11.6613 75.5286 11.5822L76.8556 11.3905V11.1258C76.8556 10.5052 76.5083 10.1949 75.8136 10.1949C75.5524 10.1949 75.3386 10.2527 75.1724 10.3683C75.0062 10.4778 74.8815 10.6086 74.7984 10.7607C74.7806 10.8155 74.7568 10.8551 74.7271 10.8794C74.7034 10.9037 74.6678 10.9159 74.6203 10.9159H74.2373C74.1839 10.9159 74.1364 10.8976 74.0948 10.8611C74.0592 10.8185 74.0414 10.7699 74.0414 10.7151C74.0473 10.5691 74.1126 10.4048 74.2373 10.2223C74.3679 10.0336 74.5668 9.87238 74.834 9.73852C75.1012 9.59857 75.4307 9.5286 75.8225 9.5286C76.4875 9.5286 76.9654 9.68984 77.2563 10.0123C77.5472 10.3287 77.6927 10.7242 77.6927 11.1988V14.156C77.6927 14.2168 77.6719 14.2685 77.6304 14.3111C77.5947 14.3476 77.5472 14.3659 77.4879 14.3659H77.0782C77.0188 14.3659 76.9684 14.3476 76.9268 14.3111C76.8912 14.2685 76.8734 14.2168 76.8734 14.156V13.7635C76.7428 13.9582 76.5528 14.1225 76.3034 14.2564C76.0541 14.3902 75.7364 14.4572 75.3505 14.4572ZM75.5375 13.7726C75.9235 13.7726 76.2381 13.6449 76.4815 13.3893C76.7309 13.1277 76.8556 12.7535 76.8556 12.2667V12.0111L75.8225 12.1663C75.401 12.2271 75.0834 12.3306 74.8696 12.4766C74.6559 12.6166 74.549 12.7961 74.549 13.0151C74.549 13.2585 74.647 13.4471 74.8429 13.581C75.0388 13.7088 75.2704 13.7726 75.5375 13.7726Z" fill="white"/>
<path d="M80.665 14.4572C80.0476 14.4572 79.5815 14.2503 79.2668 13.8365C78.9522 13.4228 78.7859 12.8995 78.7681 12.2667L78.7592 11.9929L78.7681 11.7191C78.7859 11.0924 78.9522 10.5721 79.2668 10.1584C79.5815 9.73852 80.0476 9.5286 80.665 9.5286C81.2766 9.5286 81.7575 9.75069 82.1077 10.1949V8.09566C82.1077 8.03482 82.1256 7.98614 82.1612 7.94963C82.2027 7.90704 82.2532 7.88574 82.3126 7.88574H82.74C82.7994 7.88574 82.8469 7.90704 82.8825 7.94963C82.9241 7.98614 82.9449 8.03482 82.9449 8.09566V14.156C82.9449 14.2168 82.9241 14.2685 82.8825 14.3111C82.8469 14.3476 82.7994 14.3659 82.74 14.3659H82.3393C82.2799 14.3659 82.2295 14.3476 82.1879 14.3111C82.1523 14.2685 82.1345 14.2168 82.1345 14.156V13.7726C81.7901 14.229 81.3003 14.4572 80.665 14.4572ZM80.8521 13.7179C81.2617 13.7179 81.5675 13.581 81.7693 13.3072C81.9771 13.0273 82.0899 12.6957 82.1077 12.3123C82.1137 12.2454 82.1167 12.1298 82.1167 11.9655C82.1167 11.7951 82.1137 11.6765 82.1077 11.6096C82.0959 11.2506 81.9831 10.9372 81.7693 10.6695C81.5556 10.4017 81.2498 10.2679 80.8521 10.2679C80.4305 10.2679 80.1218 10.4017 79.9259 10.6695C79.7359 10.9372 79.632 11.2901 79.6142 11.7282L79.6053 11.9929C79.6053 13.1429 80.0209 13.7179 80.8521 13.7179Z" fill="white"/>
</g>
<defs>
<filter id="filter0_d_3140_313" x="-0.5" y="0" width="151" height="54" filterUnits="userSpaceOnUse" color-interpolation-filters="sRGB">
<feFlood flood-opacity="0" result="BackgroundImageFix"/>
<feColorMatrix in="SourceAlpha" type="matrix" values="0 0 0 0 0 0 0 0 0 0 0 0 0 0 0 0 0 0 127 0" result="hardAlpha"/>
<feOffset dy="4"/>
<feGaussianBlur stdDeviation="2"/>
<feComposite in2="hardAlpha" operator="out"/>
<feColorMatrix type="matrix" values="0 0 0 0 0 0 0 0 0 0 0 0 0 0 0 0 0 0 0.25 0"/>
<feBlend mode="normal" in2="BackgroundImageFix" result="effect1_dropShadow_3140_313"/>
<feBlend mode="normal" in="SourceGraphic" in2="effect1_dropShadow_3140_313" result="shape"/>
</filter>
</defs>
</svg>
