<svg width="189" height="62" viewBox="0 0 189 62" fill="none" xmlns="http://www.w3.org/2000/svg">
<path d="M13.6614 60.2256C13.1821 60.2256 12.7144 60.2197 12.2389 60.2092C11.2537 60.1968 10.2709 60.1134 9.29847 59.96C8.3917 59.8084 7.51329 59.5261 6.69221 59.1227C5.87865 58.7226 5.13664 58.198 4.49455 57.5691C3.84318 56.9475 3.3009 56.2266 2.88916 55.435C2.4729 54.6381 2.18481 53.784 2.03496 52.9024C1.87311 51.9551 1.78556 50.9972 1.77303 50.0371C1.76306 49.7146 1.75 48.6417 1.75 48.6417V13.3391C1.75 13.3391 1.76391 12.2824 1.77311 11.972C1.78511 11.0133 1.87216 10.0569 2.0335 9.11108C2.18364 8.22703 2.47195 7.37047 2.88844 6.57103C3.29866 5.77991 3.83794 5.05845 4.48538 4.43467C5.1321 3.80496 5.8765 3.2777 6.69144 2.87213C7.51064 2.47002 8.38738 2.18981 9.29233 2.04086C10.268 1.88586 11.2542 1.80205 12.2427 1.79014L13.6622 1.77148H175.331L176.767 1.7909C177.746 1.80221 178.723 1.88526 179.69 2.03937C180.605 2.19018 181.491 2.47236 182.319 2.8766C183.951 3.69396 185.279 4.98709 186.118 6.57477C186.527 7.36868 186.811 8.21826 186.959 9.09466C187.122 10.0483 187.214 11.0122 187.234 11.9787C187.238 12.4115 187.238 12.8764 187.238 13.3391C187.25 13.9121 187.25 14.4576 187.25 15.0075V46.991C187.25 47.5462 187.25 48.088 187.238 48.6341C187.238 49.1312 187.238 49.5863 187.231 50.0549C187.213 51.0042 187.124 51.9509 186.962 52.8875C186.815 53.7754 186.529 54.6361 186.113 55.4396C185.698 56.2226 185.159 56.9373 184.515 57.5571C183.872 58.1896 183.129 58.7172 182.314 59.1198C181.488 59.5262 180.603 59.8096 179.69 59.96C178.717 60.1143 177.735 60.1976 176.749 60.2092C176.289 60.2197 175.807 60.2256 175.338 60.2256L173.633 60.2286L13.6614 60.2256Z" fill="#000046"/>
<path fill-rule="evenodd" clip-rule="evenodd" d="M67.0199 37.0952V39.725H72.991C72.8134 41.2011 72.3447 42.281 71.6311 43.0324C70.7624 43.9456 69.4024 44.9548 67.0199 44.9548C63.3433 44.9548 60.4697 41.8346 60.4697 37.9645C60.4697 34.0913 63.3433 30.9726 67.0199 30.9726C69.0039 30.9726 70.4503 31.7947 71.5207 32.8495L73.2821 30.9946C71.7879 29.4934 69.8055 28.3428 67.0199 28.3428C61.9833 28.3428 57.75 32.6608 57.75 37.9645C57.75 43.2666 61.985 47.5831 67.0199 47.5831C69.7383 47.5831 71.7879 46.6446 73.3926 44.8856C75.0406 43.1502 75.5542 40.7091 75.5542 38.7379C75.5542 38.128 75.5093 37.5652 75.4198 37.0952H67.0199ZM82.3418 35.1962C79.0891 35.1962 76.4363 37.7993 76.4363 41.388C76.4363 44.9547 79.0891 47.5813 82.3418 47.5813C85.5961 47.5813 88.2472 44.9531 88.2472 41.388C88.2458 37.7993 85.5946 35.1962 82.3418 35.1962ZM89.3173 41.388C89.3173 37.7993 91.967 35.1962 95.2213 35.1962C98.4755 35.1962 101.127 37.7993 101.127 41.388C101.127 44.9531 98.4755 47.5813 95.2213 47.5813C91.967 47.5813 89.3173 44.9547 89.3173 41.388ZM91.9014 41.3883C91.9014 43.5953 93.4404 45.1436 95.2213 45.1436C97.0036 45.1436 98.5427 43.5953 98.5427 41.3883C98.5427 39.1609 97.0036 37.6345 95.2213 37.6345C93.4389 37.6345 91.9014 39.1609 91.9014 41.3883ZM79.0219 41.3883C79.0219 43.5953 80.5594 45.1436 82.3418 45.1436C84.1241 45.1436 85.6601 43.5953 85.6617 41.3883C85.6617 39.1609 84.1241 37.6345 82.3418 37.6345C80.5594 37.6345 79.0219 39.1609 79.0219 41.3883ZM124.647 35.1962C127.699 35.1962 129.192 37.7521 129.682 39.137L129.95 39.8396L122.086 43.2648C122.687 44.5082 123.622 45.1417 124.935 45.1417C126.251 45.1417 127.165 44.4611 127.832 43.4283L129.838 44.8368C129.192 45.8459 127.632 47.5813 124.935 47.5813C121.594 47.5813 119.098 44.8603 119.098 41.388C119.098 37.7065 121.618 35.1962 124.647 35.1962ZM121.661 41.2026C121.594 38.8091 123.423 37.5871 124.738 37.5871C125.765 37.5871 126.631 38.1281 126.922 38.9018L121.661 41.2026ZM117.848 47.2097H115.266V29.0006H117.848V47.2097ZM111.033 36.5795H110.942C110.361 35.8532 109.247 35.1962 107.846 35.1962C104.903 35.1962 102.207 37.9172 102.207 41.4131C102.207 44.8855 104.905 47.5829 107.846 47.5829C109.247 47.5829 110.362 46.9258 110.942 46.1745H111.033V47.0657C111.033 49.4378 109.828 50.7016 107.89 50.7016C106.31 50.7016 105.327 49.5054 104.929 48.4978L102.678 49.4818C103.325 51.1244 105.039 53.1428 107.89 53.1428C110.922 53.1428 113.485 51.2659 113.485 46.6901V35.5703H111.033V36.5795ZM104.794 41.4133C104.794 43.5715 106.287 45.1434 108.068 45.1434C109.829 45.1434 111.212 43.5715 111.21 41.4133C111.21 39.2315 109.829 37.636 108.068 37.636C106.287 37.636 104.794 39.2299 104.794 41.4133ZM141.79 29.0006H135.605V47.2082H138.186V40.309H141.79C144.65 40.309 147.464 38.1288 147.464 34.6532C147.464 31.1824 144.65 29.0006 141.79 29.0006ZM138.186 37.7773H141.857C143.787 37.7773 144.879 36.0686 144.879 34.6554C144.879 33.2187 143.787 31.5368 141.857 31.5368H138.186V37.7773ZM157.804 35.1618C155.935 35.1618 154.002 36.0295 153.201 37.9488L155.492 38.9564C155.978 37.9488 156.891 37.6218 157.847 37.6218C159.184 37.6218 160.542 38.4644 160.561 39.9624V40.1495C160.096 39.8681 159.095 39.4484 157.87 39.4484C155.4 39.4484 152.887 40.8757 152.887 43.5464C152.887 45.9828 154.91 47.5516 157.182 47.5516C158.913 47.5516 159.872 46.7326 160.471 45.7706H160.561V47.1775H163.053V40.1982C163.055 36.9647 160.764 35.1618 157.804 35.1618ZM155.471 43.596C155.471 44.6969 156.651 45.142 157.494 45.142C158.987 45.142 160.364 43.9452 160.564 42.2609C159.875 41.9086 159.341 41.6506 158.208 41.6506C156.94 41.6506 155.471 42.1885 155.471 43.596ZM172.129 35.5596L169.173 43.4522H169.082L166.011 35.5596H163.233L167.837 46.5929L165.213 52.7281H167.903L175 35.5596H172.129ZM151.467 47.2097H148.886V29.0006H151.467V47.2097Z" fill="white"/>
<path d="M14.6269 10.7326C14.2323 11.1673 14 11.843 14 12.7184V43.9695C14 44.845 14.2323 45.5221 14.6269 45.9553L14.7262 46.0575L31.5 28.5484V28.1366L14.7277 10.6289L14.6269 10.7326Z" fill="url(#paint0_linear_267_19238)"/>
<path d="M37.1872 35.4283L31.5 29.4395V29.0171L37.1902 23.0283L37.318 23.105L44.0562 27.1351C45.9813 28.2849 45.9813 30.1686 44.0562 31.3216L37.318 35.3501L37.1872 35.4283Z" fill="url(#paint1_linear_267_19238)"/>
<path d="M36.75 34.16L30.9908 28.3428L14 45.5091C14.6283 46.181 15.6657 46.2643 16.8341 45.5953L36.75 34.16Z" fill="url(#paint2_linear_267_19238)"/>
<path d="M36.75 22.5254L16.8341 11.092C15.6657 10.4214 14.6283 10.5047 14 11.1767L30.9908 28.3432L36.75 22.5254Z" fill="url(#paint3_linear_267_19238)"/>
<path d="M58.0207 19.363C57.9422 19.363 57.8756 19.3384 57.8206 19.2892C57.7735 19.2318 57.75 19.1621 57.75 19.0801V11.0472C57.75 10.9569 57.7735 10.8872 57.8206 10.838C57.8756 10.7806 57.9422 10.7519 58.0207 10.7519H60.6926C61.8775 10.7519 62.7328 11.0308 63.2585 11.5884C63.7843 12.1379 64.0589 12.9703 64.0825 14.0857C64.0903 14.3235 64.0942 14.6433 64.0942 15.0452C64.0942 15.447 64.0903 15.771 64.0825 16.017C64.0589 16.7961 63.9334 17.4317 63.7058 17.9237C63.4861 18.4076 63.1369 18.7685 62.6583 19.0063C62.1796 19.2441 61.544 19.363 60.7514 19.363H58.0207ZM60.6926 18.3174C61.234 18.3174 61.6617 18.2395 61.9756 18.0837C62.2973 17.9278 62.5288 17.6818 62.67 17.3456C62.8191 17.0011 62.9015 16.5419 62.9172 15.9678C62.9329 15.4757 62.9407 15.1682 62.9407 15.0452C62.9407 14.914 62.9329 14.6105 62.9172 14.1349C62.9015 13.323 62.7171 12.7325 62.364 12.3634C62.0109 11.9862 61.4341 11.7976 60.6337 11.7976H58.9035V18.3174H60.6926Z" fill="white"/>
<path d="M68.2192 19.486C67.356 19.486 66.6851 19.2318 66.2065 18.7233C65.7357 18.2149 65.4846 17.5383 65.4532 16.6936L65.4414 16.1646L65.4532 15.6357C65.4846 14.7991 65.7396 14.1267 66.2182 13.6182C66.6969 13.1015 67.3639 12.8432 68.2192 12.8432C69.0745 12.8432 69.7415 13.1015 70.2202 13.6182C70.6988 14.1267 70.9539 14.7991 70.9853 15.6357C70.9931 15.7259 70.997 15.9022 70.997 16.1646C70.997 16.4271 70.9931 16.6034 70.9853 16.6936C70.9539 17.5383 70.6988 18.2149 70.2202 18.7233C69.7494 19.2318 69.0824 19.486 68.2192 19.486ZM68.2192 18.5388C68.7136 18.5388 69.102 18.3748 69.3845 18.0468C69.6748 17.7187 69.8318 17.2472 69.8553 16.6321C69.8631 16.5501 69.8671 16.3942 69.8671 16.1646C69.8671 15.935 69.8631 15.7792 69.8553 15.6972C69.8318 15.0821 69.6748 14.6105 69.3845 14.2825C69.102 13.9544 68.7136 13.7904 68.2192 13.7904C67.7249 13.7904 67.3325 13.9544 67.0422 14.2825C66.7518 14.6105 66.5988 15.0821 66.5831 15.6972L66.5714 16.1646L66.5831 16.6321C66.5988 17.2472 66.7518 17.7187 67.0422 18.0468C67.3325 18.3748 67.7249 18.5388 68.2192 18.5388Z" fill="white"/>
<path d="M73.9343 19.363C73.8323 19.363 73.7538 19.3384 73.6989 19.2892C73.644 19.24 73.5969 19.1621 73.5576 19.0555L71.8862 13.3476L71.8627 13.2245C71.8627 13.1507 71.8862 13.0892 71.9333 13.04C71.9883 12.9908 72.0471 12.9662 72.1099 12.9662H72.6278C72.7062 12.9662 72.769 12.9908 72.8161 13.04C72.871 13.081 72.9063 13.1261 72.922 13.1753L74.2285 17.813L75.6292 13.2245C75.6449 13.1589 75.6802 13.1015 75.7352 13.0523C75.7901 12.9949 75.8646 12.9662 75.9588 12.9662H76.359C76.4532 12.9662 76.5277 12.9949 76.5826 13.0523C76.6376 13.1015 76.6729 13.1589 76.6886 13.2245L78.0892 17.813L79.3958 13.1753C79.4036 13.1343 79.4311 13.0892 79.4781 13.04C79.5331 12.9908 79.5998 12.9662 79.6782 12.9662H80.2079C80.2707 12.9662 80.3256 12.9908 80.3727 13.04C80.4198 13.0892 80.4433 13.1507 80.4433 13.2245L80.4198 13.3476L78.7601 19.0555C78.7209 19.1621 78.6738 19.24 78.6189 19.2892C78.564 19.3384 78.4816 19.363 78.3717 19.363H77.9127C77.7008 19.363 77.5713 19.2605 77.5243 19.0555L76.1589 14.6515L74.7935 19.0555C74.7308 19.2605 74.5974 19.363 74.3933 19.363H73.9343Z" fill="white"/>
<path d="M82.0177 19.363C81.9392 19.363 81.8725 19.3384 81.8176 19.2892C81.7705 19.2318 81.747 19.1621 81.747 19.0801V13.2491C81.747 13.1671 81.7705 13.1015 81.8176 13.0523C81.8725 12.9949 81.9392 12.9662 82.0177 12.9662H82.5709C82.6494 12.9662 82.7121 12.9949 82.7592 13.0523C82.8142 13.1015 82.8416 13.1671 82.8416 13.2491V13.7904C83.0692 13.487 83.336 13.2532 83.642 13.0892C83.9559 12.9252 84.3443 12.8432 84.8073 12.8432C85.5606 12.8432 86.1452 13.0974 86.5611 13.6059C86.9848 14.1062 87.1967 14.7745 87.1967 15.611V19.0801C87.1967 19.1621 87.1692 19.2318 87.1143 19.2892C87.0672 19.3384 87.0044 19.363 86.926 19.363H86.3374C86.259 19.363 86.1923 19.3384 86.1373 19.2892C86.0903 19.2318 86.0667 19.1621 86.0667 19.0801V15.6726C86.0667 15.0903 85.9294 14.6392 85.6547 14.3194C85.388 13.9995 84.9995 13.8396 84.4895 13.8396C83.9951 13.8396 83.6028 14.0036 83.3124 14.3317C83.0221 14.6515 82.8769 15.0985 82.8769 15.6726V19.0801C82.8769 19.1621 82.8495 19.2318 82.7945 19.2892C82.7475 19.3384 82.6847 19.363 82.6062 19.363H82.0177Z" fill="white"/>
<path d="M89.1676 19.363C89.0891 19.363 89.0224 19.3384 88.9675 19.2892C88.9204 19.2318 88.8968 19.1621 88.8968 19.0801V10.9118C88.8968 10.8298 88.9204 10.7642 88.9675 10.715C89.0224 10.6576 89.0891 10.6289 89.1676 10.6289H89.7208C89.7992 10.6289 89.862 10.6576 89.9091 10.715C89.964 10.7642 89.9915 10.8298 89.9915 10.9118V19.0801C89.9915 19.1621 89.964 19.2318 89.9091 19.2892C89.862 19.3384 89.7992 19.363 89.7208 19.363H89.1676Z" fill="white"/>
<path d="M94.2543 19.486C93.3911 19.486 92.7202 19.2318 92.2416 18.7233C91.7708 18.2149 91.5196 17.5383 91.4883 16.6936L91.4765 16.1646L91.4883 15.6357C91.5196 14.7991 91.7747 14.1267 92.2533 13.6182C92.732 13.1015 93.399 12.8432 94.2543 12.8432C95.1096 12.8432 95.7766 13.1015 96.2553 13.6182C96.7339 14.1267 96.989 14.7991 97.0203 15.6357C97.0282 15.7259 97.0321 15.9022 97.0321 16.1646C97.0321 16.4271 97.0282 16.6034 97.0203 16.6936C96.989 17.5383 96.7339 18.2149 96.2553 18.7233C95.7845 19.2318 95.1175 19.486 94.2543 19.486ZM94.2543 18.5388C94.7487 18.5388 95.1371 18.3748 95.4196 18.0468C95.7099 17.7187 95.8668 17.2472 95.8904 16.6321C95.8982 16.5501 95.9022 16.3942 95.9022 16.1646C95.9022 15.935 95.8982 15.7792 95.8904 15.6972C95.8668 15.0821 95.7099 14.6105 95.4196 14.2825C95.1371 13.9544 94.7487 13.7904 94.2543 13.7904C93.7599 13.7904 93.3676 13.9544 93.0773 14.2825C92.7869 14.6105 92.6339 15.0821 92.6182 15.6972L92.6064 16.1646L92.6182 16.6321C92.6339 17.2472 92.7869 17.7187 93.0773 18.0468C93.3676 18.3748 93.7599 18.5388 94.2543 18.5388Z" fill="white"/>
<path d="M100.213 19.486C99.8282 19.486 99.4712 19.404 99.1416 19.24C98.812 19.076 98.5491 18.8546 98.353 18.5757C98.1646 18.2887 98.0705 17.973 98.0705 17.6285C98.0705 17.0872 98.2824 16.6444 98.7061 16.2999C99.1377 15.9473 99.7183 15.7177 100.448 15.611L102.202 15.3527V14.996C102.202 14.1595 101.743 13.7412 100.825 13.7412C100.479 13.7412 100.197 13.8191 99.9773 13.9749C99.7576 14.1226 99.5928 14.2989 99.4829 14.5039C99.4594 14.5777 99.428 14.631 99.3888 14.6638C99.3574 14.6966 99.3103 14.713 99.2475 14.713H98.7414C98.6708 14.713 98.608 14.6884 98.5531 14.6392C98.506 14.5818 98.4824 14.5162 98.4824 14.4424C98.4903 14.2456 98.5766 14.0241 98.7414 13.7781C98.914 13.5239 99.1769 13.3066 99.53 13.1261C99.8831 12.9375 100.319 12.8432 100.837 12.8432C101.715 12.8432 102.347 13.0605 102.732 13.4952C103.116 13.9216 103.308 14.4547 103.308 15.0944V19.0801C103.308 19.1621 103.281 19.2318 103.226 19.2892C103.179 19.3384 103.116 19.363 103.038 19.363H102.496C102.418 19.363 102.351 19.3384 102.296 19.2892C102.249 19.2318 102.225 19.1621 102.225 19.0801V18.5511C102.053 18.8136 101.802 19.035 101.472 19.2154C101.143 19.3958 100.723 19.486 100.213 19.486ZM100.46 18.5634C100.97 18.5634 101.386 18.3912 101.708 18.0468C102.037 17.6941 102.202 17.1898 102.202 16.5337V16.1892L100.837 16.3984C100.279 16.4804 99.8596 16.6198 99.5771 16.8166C99.2946 17.0052 99.1534 17.2472 99.1534 17.5424C99.1534 17.8704 99.2828 18.1247 99.5418 18.3051C99.8007 18.4773 100.107 18.5634 100.46 18.5634Z" fill="white"/>
<path d="M107.237 19.486C106.421 19.486 105.805 19.2072 105.389 18.6495C104.973 18.0919 104.753 17.3866 104.73 16.5337L104.718 16.1646L104.73 15.7956C104.753 14.9509 104.973 14.2497 105.389 13.692C105.805 13.1261 106.421 12.8432 107.237 12.8432C108.045 12.8432 108.681 13.1425 109.144 13.7412V10.9118C109.144 10.8298 109.167 10.7642 109.214 10.715C109.269 10.6576 109.336 10.6289 109.414 10.6289H109.979C110.058 10.6289 110.121 10.6576 110.168 10.715C110.223 10.7642 110.25 10.8298 110.25 10.9118V19.0801C110.25 19.1621 110.223 19.2318 110.168 19.2892C110.121 19.3384 110.058 19.363 109.979 19.363H109.45C109.371 19.363 109.304 19.3384 109.25 19.2892C109.202 19.2318 109.179 19.1621 109.179 19.0801V18.5634C108.724 19.1785 108.076 19.486 107.237 19.486ZM107.484 18.4896C108.025 18.4896 108.43 18.3051 108.696 17.936C108.971 17.5588 109.12 17.1118 109.144 16.5952C109.151 16.505 109.155 16.3491 109.155 16.1277C109.155 15.8981 109.151 15.7382 109.144 15.648C109.128 15.1641 108.979 14.7417 108.696 14.3809C108.414 14.02 108.01 13.8396 107.484 13.8396C106.927 13.8396 106.519 14.02 106.26 14.3809C106.009 14.7417 105.871 15.2174 105.848 15.8079L105.836 16.1646C105.836 17.7146 106.385 18.4896 107.484 18.4896Z" fill="white"/>
<defs>
<linearGradient id="paint0_linear_267_19238" x1="24.1555" y1="-10.6115" x2="-2.85296" y2="-3.73351" gradientUnits="userSpaceOnUse">
<stop stop-color="#00A0FF"/>
<stop offset="0.0066" stop-color="#00A1FF"/>
<stop offset="0.2601" stop-color="#00BEFF"/>
<stop offset="0.5122" stop-color="#00D2FF"/>
<stop offset="0.7604" stop-color="#00DFFF"/>
<stop offset="1" stop-color="#00E3FF"/>
</linearGradient>
<linearGradient id="paint1_linear_267_19238" x1="46.5608" y1="14.4685" x2="13.2363" y2="14.4685" gradientUnits="userSpaceOnUse">
<stop stop-color="#FFE000"/>
<stop offset="0.4087" stop-color="#FFBD00"/>
<stop offset="0.7754" stop-color="#FFA500"/>
<stop offset="1" stop-color="#FF9C00"/>
</linearGradient>
<linearGradient id="paint2_linear_267_19238" x1="13.4919" y1="19.425" x2="-8.55303" y2="56.1607" gradientUnits="userSpaceOnUse">
<stop stop-color="#FF3A44"/>
<stop offset="1" stop-color="#C31162"/>
</linearGradient>
<linearGradient id="paint3_linear_267_19238" x1="0.734882" y1="6.42856" x2="10.5784" y2="22.8334" gradientUnits="userSpaceOnUse">
<stop stop-color="#32A071"/>
<stop offset="0.0685" stop-color="#2DA771"/>
<stop offset="0.4762" stop-color="#15CF74"/>
<stop offset="0.8009" stop-color="#06E775"/>
<stop offset="1" stop-color="#00F076"/>
</linearGradient>
</defs>
</svg>
