<svg width="150" height="54" viewBox="0 0 150 54" fill="none" xmlns="http://www.w3.org/2000/svg">
<g filter="url(#filter0_d_3140_327)">
<path d="M13.8366 45.6547C13.4739 45.6547 13.12 45.6503 12.7602 45.6424C12.0149 45.6329 11.2713 45.5697 10.5355 45.4534C9.84942 45.3385 9.1848 45.1245 8.56356 44.8187C7.94801 44.5154 7.38659 44.1177 6.90079 43.641C6.40795 43.1697 5.99765 42.6233 5.68612 42.0232C5.37118 41.4191 5.1532 40.7716 5.03982 40.1033C4.91737 39.3852 4.85112 38.659 4.84164 37.9312C4.8341 37.6868 4.82422 36.8734 4.82422 36.8734V10.1117C4.82422 10.1117 4.83474 9.31074 4.8417 9.07542C4.85078 8.34868 4.91665 7.62367 5.03872 6.90666C5.15232 6.2365 5.37046 5.58716 5.68557 4.98114C5.99595 4.38142 6.40399 3.83451 6.89385 3.36164C7.38316 2.88428 7.94638 2.48458 8.56298 2.17713C9.18279 1.87231 9.84615 1.65989 10.5308 1.54698C11.269 1.42948 12.0152 1.36595 12.7632 1.35692L13.8372 1.34277H136.158L137.244 1.35749C137.986 1.36606 138.724 1.42902 139.456 1.54585C140.148 1.66017 140.818 1.87408 141.445 2.18052C142.68 2.80013 143.685 3.78041 144.319 4.98397C144.629 5.58581 144.844 6.22985 144.956 6.89421C145.079 7.61711 145.149 8.34783 145.164 9.08052C145.167 9.40861 145.167 9.76101 145.167 10.1117C145.176 10.5462 145.176 10.9597 145.176 11.3765V35.6221C145.176 36.0429 145.176 36.4537 145.167 36.8677C145.167 37.2445 145.167 37.5895 145.161 37.9447C145.148 38.6644 145.081 39.382 144.958 40.092C144.847 40.7651 144.63 41.4176 144.316 42.0267C144.002 42.6202 143.594 43.162 143.107 43.6319C142.621 44.1113 142.058 44.5113 141.442 44.8165C140.816 45.1246 140.147 45.3394 139.456 45.4534C138.72 45.5704 137.977 45.6335 137.231 45.6424C136.883 45.6503 136.518 45.6547 136.163 45.6547L134.873 45.6571L13.8366 45.6547Z" fill="#202020"/>
<path fill-rule="evenodd" clip-rule="evenodd" d="M54.2081 28.1203V30.1138H58.7259C58.5915 31.2328 58.2369 32.0514 57.6969 32.621C57.0397 33.3133 56.0107 34.0784 54.2081 34.0784C51.4263 34.0784 49.2521 31.713 49.2521 28.7792C49.2521 25.8431 51.4263 23.4789 54.2081 23.4789C55.7092 23.4789 56.8036 24.1021 57.6135 24.9017L58.9462 23.4956C57.8156 22.3576 56.3157 21.4854 54.2081 21.4854C50.3973 21.4854 47.1943 24.7587 47.1943 28.7792C47.1943 32.7986 50.3986 36.0707 54.2081 36.0707C56.2649 36.0707 57.8156 35.3593 59.0297 34.0259C60.2766 32.7104 60.6652 30.8598 60.6652 29.3655C60.6652 28.9032 60.6313 28.4766 60.5636 28.1203H54.2081ZM65.8008 26.6807C63.3398 26.6807 61.3327 28.654 61.3327 31.3745C61.3327 34.0782 63.3398 36.0694 65.8008 36.0694C68.2631 36.0694 70.269 34.077 70.269 31.3745C70.2678 28.654 68.262 26.6807 65.8008 26.6807ZM71.0786 31.3745C71.0786 28.654 73.0834 26.6807 75.5456 26.6807C78.0078 26.6807 80.0137 28.654 80.0137 31.3745C80.0137 34.077 78.0078 36.0694 75.5456 36.0694C73.0834 36.0694 71.0786 34.0782 71.0786 31.3745ZM73.0337 31.3747C73.0337 33.0477 74.1982 34.2215 75.5456 34.2215C76.8941 34.2215 78.0587 33.0477 78.0587 31.3747C78.0587 29.6862 76.8941 28.5291 75.5456 28.5291C74.197 28.5291 73.0337 29.6862 73.0337 31.3747ZM63.2889 31.3747C63.2889 33.0477 64.4522 34.2215 65.8008 34.2215C67.1493 34.2215 68.3115 33.0477 68.3127 31.3747C68.3127 29.6862 67.1493 28.5291 65.8008 28.5291C64.4522 28.5291 63.2889 29.6862 63.2889 31.3747ZM97.8092 26.6807C100.119 26.6807 101.248 28.6182 101.619 29.6681L101.822 30.2007L95.8722 32.7972C96.3262 33.7398 97.0343 34.22 98.0272 34.22C99.0233 34.22 99.7145 33.7041 100.219 32.9212L101.737 33.9889C101.248 34.7539 100.068 36.0694 98.0272 36.0694C95.4995 36.0694 93.611 34.0067 93.611 31.3745C93.611 28.5837 95.5175 26.6807 97.8092 26.6807ZM95.5503 31.234C95.4995 29.4195 96.8831 28.4931 97.8781 28.4931C98.6551 28.4931 99.3103 28.9033 99.5304 29.4898L95.5503 31.234ZM92.6656 35.7877H90.7117V21.984H92.6656V35.7877ZM87.5087 27.7293H87.4398C87.0004 27.1788 86.1578 26.6807 85.0973 26.6807C82.8712 26.6807 80.8314 28.7434 80.8314 31.3935C80.8314 34.0258 82.8724 36.0706 85.0973 36.0706C86.1578 36.0706 87.0016 35.5725 87.4398 35.0029H87.5087V35.6786C87.5087 37.4767 86.5973 38.4348 85.1312 38.4348C83.9351 38.4348 83.1919 37.528 82.8904 36.7641L81.1872 37.5101C81.6774 38.7553 82.974 40.2854 85.1312 40.2854C87.4251 40.2854 89.3644 38.8626 89.3644 35.3938V26.9643H87.5087V27.7293ZM82.7887 31.3936C82.7887 33.0297 83.9181 34.2213 85.2656 34.2213C86.5983 34.2213 87.6441 33.0297 87.643 31.3936C87.643 29.7397 86.5983 28.5302 85.2656 28.5302C83.9181 28.5302 82.7887 29.7385 82.7887 31.3936ZM110.78 21.984H106.1V35.7865H108.053V30.5565H110.78C112.944 30.5565 115.073 28.9038 115.073 26.2691C115.073 23.638 112.944 21.984 110.78 21.984ZM108.053 28.6373H110.83C112.291 28.6373 113.118 27.342 113.118 26.2708C113.118 25.1816 112.291 23.9066 110.83 23.9066H108.053V28.6373ZM122.896 26.6546C121.482 26.6546 120.02 27.3124 119.414 28.7673L121.147 29.5311C121.515 28.7673 122.206 28.5195 122.929 28.5195C123.941 28.5195 124.968 29.1582 124.983 30.2938V30.4356C124.631 30.2223 123.873 29.9041 122.947 29.9041C121.078 29.9041 119.176 30.9861 119.176 33.0107C119.176 34.8577 120.707 36.0469 122.426 36.0469C123.736 36.0469 124.462 35.4261 124.914 34.6968H124.983V35.7633H126.868V30.4725C126.869 28.0214 125.136 26.6546 122.896 26.6546ZM121.132 33.0483C121.132 33.8828 122.025 34.2203 122.662 34.2203C123.792 34.2203 124.834 33.313 124.985 32.0362C124.464 31.7691 124.059 31.5736 123.202 31.5736C122.243 31.5736 121.132 31.9813 121.132 33.0483ZM133.735 26.9562L131.498 32.9393H131.43L129.106 26.9562H127.004L130.488 35.3201L128.502 39.971H130.538L135.907 26.9562H133.735ZM118.102 35.7877H116.149V21.984H118.102V35.7877Z" fill="white"/>
<path d="M14.5671 8.13624C14.2686 8.46575 14.0928 8.97794 14.0928 9.6416V33.3319C14.0928 33.9956 14.2686 34.5089 14.5671 34.8373L14.6423 34.9148L27.3335 21.6417V21.3295L14.6434 8.05762L14.5671 8.13624Z" fill="url(#paint0_linear_3140_327)"/>
<path d="M31.636 26.857L27.333 22.3171V21.9969L31.6383 17.457L31.735 17.5151L36.8332 20.5702C38.2897 21.4419 38.2897 22.8698 36.8332 23.7439L31.735 26.7977L31.636 26.857Z" fill="url(#paint1_linear_3140_327)"/>
<path d="M31.3057 25.8952L26.9482 21.4854L14.0928 34.4985C14.5682 35.0079 15.353 35.071 16.2371 34.5639L31.3057 25.8952Z" fill="url(#paint2_linear_3140_327)"/>
<path d="M31.3057 17.0759L16.2371 8.40864C15.353 7.90033 14.5682 7.96345 14.0928 8.47289L26.9482 21.4862L31.3057 17.0759Z" fill="url(#paint3_linear_3140_327)"/>
<path d="M47.3992 14.6786C47.3398 14.6786 47.2893 14.66 47.2478 14.6227C47.2121 14.5792 47.1943 14.5263 47.1943 14.4642V8.37468C47.1943 8.30629 47.2121 8.25345 47.2478 8.21615C47.2893 8.17263 47.3398 8.15087 47.3992 8.15087H49.4207C50.3172 8.15087 50.9644 8.36225 51.3622 8.785C51.76 9.20153 51.9678 9.83255 51.9856 10.6781C51.9915 10.8583 51.9945 11.1008 51.9945 11.4054C51.9945 11.7101 51.9915 11.9556 51.9856 12.1421C51.9678 12.7327 51.8728 13.2146 51.7006 13.5876C51.5344 13.9544 51.2702 14.2279 50.908 14.4082C50.5458 14.5885 50.0649 14.6786 49.4653 14.6786H47.3992ZM49.4207 13.886C49.8304 13.886 50.154 13.8269 50.3915 13.7088C50.6349 13.5907 50.81 13.4042 50.9169 13.1493C51.0297 12.8882 51.092 12.54 51.1039 12.1048C51.1158 11.7318 51.1217 11.4987 51.1217 11.4054C51.1217 11.306 51.1158 11.0759 51.1039 10.7154C51.092 10.0999 50.9525 9.65226 50.6853 9.3725C50.4182 9.08652 49.9818 8.94353 49.3762 8.94353H48.0671V13.886H49.4207Z" fill="white"/>
<path d="M55.1155 14.7719C54.4624 14.7719 53.9548 14.5792 53.5926 14.1937C53.2364 13.8083 53.0464 13.2954 53.0227 12.655L53.0138 12.254L53.0227 11.8531C53.0464 11.2189 53.2394 10.7091 53.6015 10.3237C53.9637 9.93202 54.4683 9.73619 55.1155 9.73619C55.7626 9.73619 56.2673 9.93202 56.6294 10.3237C56.9916 10.7091 57.1846 11.2189 57.2083 11.8531C57.2142 11.9214 57.2172 12.0551 57.2172 12.254C57.2172 12.453 57.2142 12.5867 57.2083 12.655C57.1846 13.2954 56.9916 13.8083 56.6294 14.1937C56.2732 14.5792 55.7686 14.7719 55.1155 14.7719ZM55.1155 14.0538C55.4895 14.0538 55.7834 13.9295 55.9971 13.6808C56.2168 13.4322 56.3356 13.0747 56.3534 12.6084C56.3593 12.5462 56.3623 12.4281 56.3623 12.254C56.3623 12.08 56.3593 11.9618 56.3534 11.8997C56.3356 11.4334 56.2168 11.0759 55.9971 10.8273C55.7834 10.5786 55.4895 10.4542 55.1155 10.4542C54.7414 10.4542 54.4446 10.5786 54.2249 10.8273C54.0052 11.0759 53.8895 11.4334 53.8776 11.8997L53.8687 12.254L53.8776 12.6084C53.8895 13.0747 54.0052 13.4322 54.2249 13.6808C54.4446 13.9295 54.7414 14.0538 55.1155 14.0538Z" fill="white"/>
<path d="M59.4396 14.6786C59.3624 14.6786 59.303 14.66 59.2615 14.6227C59.2199 14.5854 59.1843 14.5263 59.1546 14.4455L57.89 10.1185L57.8722 10.0253C57.8722 9.96932 57.89 9.9227 57.9256 9.8854C57.9672 9.84809 58.0117 9.82944 58.0592 9.82944H58.4511C58.5104 9.82944 58.5579 9.84809 58.5936 9.8854C58.6351 9.91648 58.6618 9.95067 58.6737 9.98797L59.6622 13.5036L60.722 10.0253C60.7339 9.97554 60.7606 9.93202 60.8022 9.89472C60.8437 9.8512 60.9001 9.82944 60.9714 9.82944H61.2742C61.3454 9.82944 61.4018 9.8512 61.4434 9.89472C61.4849 9.93202 61.5116 9.97554 61.5235 10.0253L62.5833 13.5036L63.5718 9.98797C63.5777 9.95689 63.5985 9.9227 63.6341 9.8854C63.6757 9.84809 63.7262 9.82944 63.7855 9.82944H64.1863C64.2338 9.82944 64.2754 9.84809 64.311 9.8854C64.3466 9.9227 64.3644 9.96932 64.3644 10.0253L64.3466 10.1185L63.0909 14.4455C63.0612 14.5263 63.0256 14.5854 62.984 14.6227C62.9425 14.66 62.8801 14.6786 62.797 14.6786H62.4497C62.2894 14.6786 62.1914 14.6009 62.1558 14.4455L61.1228 11.107L60.0897 14.4455C60.0422 14.6009 59.9413 14.6786 59.7869 14.6786H59.4396Z" fill="white"/>
<path d="M65.5556 14.6786C65.4962 14.6786 65.4458 14.66 65.4042 14.6227C65.3686 14.5792 65.3508 14.5263 65.3508 14.4642V10.0439C65.3508 9.98176 65.3686 9.93202 65.4042 9.89472C65.4458 9.8512 65.4962 9.82944 65.5556 9.82944H65.9742C66.0335 9.82944 66.081 9.8512 66.1167 9.89472C66.1582 9.93202 66.179 9.98176 66.179 10.0439V10.4542C66.3512 10.2242 66.553 10.047 66.7846 9.9227C67.0221 9.79836 67.316 9.73619 67.6662 9.73619C68.2362 9.73619 68.6785 9.92891 68.9932 10.3144C69.3138 10.6936 69.4741 11.2003 69.4741 11.8344V14.4642C69.4741 14.5263 69.4533 14.5792 69.4118 14.6227C69.3761 14.66 69.3286 14.6786 69.2693 14.6786H68.824C68.7646 14.6786 68.7141 14.66 68.6726 14.6227C68.637 14.5792 68.6191 14.5263 68.6191 14.4642V11.881C68.6191 11.4396 68.5152 11.0977 68.3075 10.8552C68.1056 10.6128 67.8117 10.4915 67.4258 10.4915C67.0518 10.4915 66.7549 10.6159 66.5352 10.8646C66.3156 11.107 66.2057 11.4458 66.2057 11.881V14.4642C66.2057 14.5263 66.1849 14.5792 66.1434 14.6227C66.1078 14.66 66.0603 14.6786 66.0009 14.6786H65.5556Z" fill="white"/>
<path d="M70.9653 14.6786C70.9059 14.6786 70.8555 14.66 70.8139 14.6227C70.7783 14.5792 70.7605 14.5263 70.7605 14.4642V8.2721C70.7605 8.20993 70.7783 8.1602 70.8139 8.1229C70.8555 8.07938 70.9059 8.05762 70.9653 8.05762H71.3839C71.4432 8.05762 71.4907 8.07938 71.5264 8.1229C71.5679 8.1602 71.5887 8.20993 71.5887 8.2721V14.4642C71.5887 14.5263 71.5679 14.5792 71.5264 14.6227C71.4907 14.66 71.4432 14.6786 71.3839 14.6786H70.9653Z" fill="white"/>
<path d="M74.814 14.7719C74.1609 14.7719 73.6533 14.5792 73.2911 14.1937C72.9349 13.8083 72.7449 13.2954 72.7212 12.655L72.7123 12.254L72.7212 11.8531C72.7449 11.2189 72.9379 10.7091 73.3 10.3237C73.6622 9.93202 74.1669 9.73619 74.814 9.73619C75.4611 9.73619 75.9658 9.93202 76.328 10.3237C76.6901 10.7091 76.8831 11.2189 76.9068 11.8531C76.9128 11.9214 76.9157 12.0551 76.9157 12.254C76.9157 12.453 76.9128 12.5867 76.9068 12.655C76.8831 13.2954 76.6901 13.8083 76.328 14.1937C75.9717 14.5792 75.4671 14.7719 74.814 14.7719ZM74.814 14.0538C75.188 14.0538 75.4819 13.9295 75.6957 13.6808C75.9153 13.4322 76.0341 13.0747 76.0519 12.6084C76.0578 12.5462 76.0608 12.4281 76.0608 12.254C76.0608 12.08 76.0578 11.9618 76.0519 11.8997C76.0341 11.4334 75.9153 11.0759 75.6957 10.8273C75.4819 10.5786 75.188 10.4542 74.814 10.4542C74.44 10.4542 74.1431 10.5786 73.9234 10.8273C73.7038 11.0759 73.588 11.4334 73.5761 11.8997L73.5672 12.254L73.5761 12.6084C73.588 13.0747 73.7038 13.4322 73.9234 13.6808C74.1431 13.9295 74.44 14.0538 74.814 14.0538Z" fill="white"/>
<path d="M79.3222 14.7719C79.0313 14.7719 78.7611 14.7097 78.5118 14.5854C78.2624 14.4611 78.0635 14.2932 77.9151 14.0818C77.7726 13.8642 77.7014 13.6249 77.7014 13.3638C77.7014 12.9534 77.8617 12.6177 78.1823 12.3566C78.5088 12.0893 78.9482 11.9152 79.5003 11.8344L80.8273 11.6386V11.3681C80.8273 10.734 80.4799 10.4169 79.7853 10.4169C79.5241 10.4169 79.3103 10.476 79.1441 10.5941C78.9778 10.706 78.8532 10.8397 78.77 10.9951C78.7522 11.0511 78.7285 11.0915 78.6988 11.1163C78.6751 11.1412 78.6394 11.1536 78.5919 11.1536H78.209C78.1556 11.1536 78.1081 11.135 78.0665 11.0977C78.0309 11.0542 78.0131 11.0044 78.0131 10.9485C78.019 10.7993 78.0843 10.6314 78.209 10.4449C78.3396 10.2522 78.5385 10.0874 78.8057 9.95067C79.0728 9.80768 79.4023 9.73619 79.7942 9.73619C80.4591 9.73619 80.9371 9.90094 81.228 10.2304C81.5189 10.5537 81.6644 10.9578 81.6644 11.4427V14.4642C81.6644 14.5263 81.6436 14.5792 81.602 14.6227C81.5664 14.66 81.5189 14.6786 81.4595 14.6786H81.0499C80.9905 14.6786 80.9401 14.66 80.8985 14.6227C80.8629 14.5792 80.8451 14.5263 80.8451 14.4642V14.0632C80.7144 14.2621 80.5245 14.43 80.2751 14.5667C80.0257 14.7035 79.7081 14.7719 79.3222 14.7719ZM79.5092 14.0725C79.8951 14.0725 80.2098 13.9419 80.4532 13.6808C80.7026 13.4135 80.8273 13.0312 80.8273 12.5338V12.2727L79.7942 12.4312C79.3727 12.4934 79.055 12.5991 78.8413 12.7483C78.6276 12.8913 78.5207 13.0747 78.5207 13.2985C78.5207 13.5472 78.6187 13.7399 78.8146 13.8767C79.0105 14.0072 79.242 14.0725 79.5092 14.0725Z" fill="white"/>
<path d="M84.6367 14.7719C84.0192 14.7719 83.5532 14.5605 83.2385 14.1378C82.9239 13.715 82.7576 13.1804 82.7398 12.5338L82.7309 12.254L82.7398 11.9743C82.7576 11.3339 82.9239 10.8024 83.2385 10.3796C83.5532 9.95067 84.0192 9.73619 84.6367 9.73619C85.2482 9.73619 85.7291 9.96311 86.0794 10.4169V8.2721C86.0794 8.20993 86.0972 8.1602 86.1329 8.1229C86.1744 8.07938 86.2249 8.05762 86.2842 8.05762H86.7117C86.7711 8.05762 86.8186 8.07938 86.8542 8.1229C86.8958 8.1602 86.9165 8.20993 86.9165 8.2721V14.4642C86.9165 14.5263 86.8958 14.5792 86.8542 14.6227C86.8186 14.66 86.7711 14.6786 86.7117 14.6786H86.311C86.2516 14.6786 86.2011 14.66 86.1596 14.6227C86.1239 14.5792 86.1061 14.5263 86.1061 14.4642V14.0725C85.7618 14.5388 85.272 14.7719 84.6367 14.7719ZM84.8237 14.0165C85.2334 14.0165 85.5391 13.8767 85.741 13.5969C85.9488 13.3109 86.0616 12.9721 86.0794 12.5804C86.0854 12.512 86.0883 12.3939 86.0883 12.2261C86.0883 12.052 86.0854 11.9308 86.0794 11.8624C86.0675 11.4956 85.9547 11.1754 85.741 10.9019C85.5273 10.6283 85.2215 10.4915 84.8237 10.4915C84.4022 10.4915 84.0935 10.6283 83.8975 10.9019C83.7076 11.1754 83.6037 11.536 83.5858 11.9836L83.5769 12.254C83.5769 13.429 83.9925 14.0165 84.8237 14.0165Z" fill="white"/>
</g>
<defs>
<filter id="filter0_d_3140_327" x="-0.5" y="0" width="151" height="55" filterUnits="userSpaceOnUse" color-interpolation-filters="sRGB">
<feFlood flood-opacity="0" result="BackgroundImageFix"/>
<feColorMatrix in="SourceAlpha" type="matrix" values="0 0 0 0 0 0 0 0 0 0 0 0 0 0 0 0 0 0 127 0" result="hardAlpha"/>
<feOffset dy="4"/>
<feGaussianBlur stdDeviation="2"/>
<feComposite in2="hardAlpha" operator="out"/>
<feColorMatrix type="matrix" values="0 0 0 0 0 0 0 0 0 0 0 0 0 0 0 0 0 0 0.25 0"/>
<feBlend mode="normal" in2="BackgroundImageFix" result="effect1_dropShadow_3140_327"/>
<feBlend mode="normal" in="SourceGraphic" in2="effect1_dropShadow_3140_327" result="shape"/>
</filter>
<linearGradient id="paint0_linear_3140_327" x1="21.7766" y1="-8.04399" x2="1.33683" y2="-2.84875" gradientUnits="userSpaceOnUse">
<stop stop-color="#00A0FF"/>
<stop offset="0.0066" stop-color="#00A1FF"/>
<stop offset="0.2601" stop-color="#00BEFF"/>
<stop offset="0.5122" stop-color="#00D2FF"/>
<stop offset="0.7604" stop-color="#00DFFF"/>
<stop offset="1" stop-color="#00E3FF"/>
</linearGradient>
<linearGradient id="paint1_linear_3140_327" x1="38.7282" y1="10.9682" x2="13.5144" y2="10.9682" gradientUnits="userSpaceOnUse">
<stop stop-color="#FFE000"/>
<stop offset="0.4087" stop-color="#FFBD00"/>
<stop offset="0.7754" stop-color="#FFA500"/>
<stop offset="1" stop-color="#FF9C00"/>
</linearGradient>
<linearGradient id="paint2_linear_3140_327" x1="13.7084" y1="14.7251" x2="-3.01819" y2="42.5448" gradientUnits="userSpaceOnUse">
<stop stop-color="#FF3A44"/>
<stop offset="1" stop-color="#C31162"/>
</linearGradient>
<linearGradient id="paint3_linear_3140_327" x1="4.0562" y1="4.87348" x2="11.5249" y2="17.2968" gradientUnits="userSpaceOnUse">
<stop stop-color="#32A071"/>
<stop offset="0.0685" stop-color="#2DA771"/>
<stop offset="0.4762" stop-color="#15CF74"/>
<stop offset="0.8009" stop-color="#06E775"/>
<stop offset="1" stop-color="#00F076"/>
</linearGradient>
</defs>
</svg>
