<svg width="109" height="35" viewBox="0 0 109 35" fill="none" xmlns="http://www.w3.org/2000/svg">
<path opacity="0.5" d="M8.64247 33.9983C8.36858 33.9983 8.10131 33.9949 7.82958 33.9891C7.26665 33.982 6.70504 33.935 6.14935 33.8484C5.6312 33.7627 5.12925 33.6034 4.66006 33.3757C4.19517 33.1498 3.77116 32.8537 3.40425 32.4987C3.03204 32.1477 2.72217 31.7408 2.48689 31.2939C2.24902 30.8441 2.0844 30.3619 1.99877 29.8642C1.90629 29.3295 1.85626 28.7887 1.8491 28.2466C1.8434 28.0647 1.83594 27.459 1.83594 27.459V7.53007C1.83594 7.53007 1.84388 6.93359 1.84914 6.75835C1.856 6.21716 1.90574 5.67726 1.99794 5.14332C2.08373 4.64426 2.24848 4.16071 2.48647 3.70942C2.72088 3.26281 3.02905 2.85555 3.39901 2.50341C3.76856 2.14793 4.19394 1.85028 4.65962 1.62133C5.12773 1.39433 5.62873 1.23615 6.14584 1.15207C6.70335 1.06456 7.26691 1.01725 7.83179 1.01053L8.64291 1H101.025L101.846 1.01096C102.405 1.01734 102.963 1.06423 103.516 1.15123C104.039 1.23636 104.545 1.39564 105.018 1.62386C105.951 2.08527 106.71 2.81526 107.189 3.71152C107.423 4.15971 107.585 4.63931 107.67 5.13405C107.763 5.67237 107.816 6.21652 107.827 6.76215C107.829 7.00646 107.829 7.2689 107.829 7.53007C107.836 7.85358 107.836 8.1615 107.836 8.47196V26.5272C107.836 26.8406 107.836 27.1463 107.829 27.4547C107.829 27.7352 107.829 27.9923 107.825 28.2568C107.815 28.7926 107.764 29.327 107.671 29.8557C107.587 30.3571 107.424 30.8429 107.186 31.2964C106.949 31.7385 106.641 32.142 106.273 32.4919C105.906 32.8489 105.481 33.1468 105.015 33.374C104.543 33.6035 104.038 33.7634 103.516 33.8484C102.96 33.9355 102.399 33.9825 101.835 33.9891C101.573 33.9949 101.297 33.9983 101.029 33.9983L100.055 34L8.64247 33.9983Z" fill="white"/>
<path d="M21.3643 17.7443C21.3734 16.9866 21.5611 16.2437 21.91 15.5846C22.2588 14.9256 22.7575 14.3719 23.3595 13.975C22.9771 13.3894 22.4725 12.9073 21.8859 12.5673C21.2993 12.2273 20.6469 12.0386 19.9804 12.0163C18.5586 11.8562 17.1803 12.9285 16.4558 12.9285C15.7172 12.9285 14.6018 12.0322 13.4006 12.0586C12.6236 12.0856 11.8664 12.3278 11.2027 12.7618C10.539 13.1958 9.99149 13.8067 9.61354 14.535C7.97605 17.5747 9.19741 22.0422 10.766 24.4993C11.5508 25.7024 12.4679 27.0464 13.6681 26.9988C14.8424 26.9466 15.281 26.1958 16.6986 26.1958C18.1031 26.1958 18.5145 26.9988 19.739 26.9684C20.9992 26.9466 21.7931 25.76 22.5504 24.5454C23.1142 23.6881 23.5481 22.7406 23.8359 21.738C23.1038 21.4059 22.4791 20.8502 22.0396 20.14C21.6 19.4299 21.3652 18.5967 21.3643 17.7443V17.7443Z" fill="black"/>
<path d="M19.804 9.78069C20.5459 9.00462 20.9114 8.00711 20.8229 7C19.6894 7.10374 18.6424 7.57578 17.8905 8.32208C17.5228 8.68669 17.2413 9.11081 17.0618 9.5703C16.8825 10.0297 16.8087 10.5155 16.8449 10.9998C17.4118 11.0049 17.9727 10.8978 18.4853 10.6867C18.9978 10.4755 19.4488 10.1657 19.804 9.78069V9.78069Z" fill="black"/>
<path d="M36.2501 23.0268H32.3948L31.4689 26H29.8359L33.4876 15H35.1842L38.8359 26H37.1751L36.2501 23.0268ZM32.794 21.6548H35.85L34.3435 16.8296H34.3013L32.794 21.6548Z" fill="black"/>
<path d="M46.8359 22.1878C46.8359 24.736 45.5999 26.3731 43.7348 26.3731C43.2622 26.4004 42.7923 26.2803 42.3788 26.0266C41.9653 25.7728 41.6249 25.3958 41.3966 24.9385H41.3613V29H39.8359V18.0874H41.3124V19.4512H41.3405C41.5793 18.9962 41.9255 18.621 42.3421 18.3657C42.7588 18.1105 43.2304 17.9846 43.7067 18.0015C45.5927 18.0016 46.8359 19.6467 46.8359 22.1878ZM45.2681 22.1878C45.2681 20.5276 44.4906 19.4361 43.3043 19.4361C42.1388 19.4361 41.3549 20.5506 41.3549 22.1878C41.3549 23.8399 42.1388 24.9464 43.3043 24.9464C44.4906 24.9464 45.2681 23.8629 45.2681 22.1878Z" fill="black"/>
<path d="M55.8359 22.1878C55.8359 24.736 54.6 26.3731 52.7347 26.3731C52.2623 26.4004 51.7924 26.2803 51.3789 26.0266C50.9653 25.7728 50.6249 25.3958 50.3966 24.9385H50.3613V29H48.8359V18.0874H50.3124V19.4512H50.3405C50.5792 18.9962 50.9254 18.621 51.3421 18.3657C51.7587 18.1105 52.2303 17.9846 52.7067 18.0015C54.5928 18.0015 55.8359 19.6466 55.8359 22.1878ZM54.2681 22.1878C54.2681 20.5276 53.4906 19.4361 52.3043 19.4361C51.1388 19.4361 50.3549 20.5506 50.3549 22.1878C50.3549 23.8399 51.1388 24.9464 52.3043 24.9464C53.4906 24.9464 54.2681 23.8629 54.2681 22.1878Z" fill="black"/>
<path d="M61.4334 22.8566C61.549 23.9123 62.5535 24.6054 63.9262 24.6054C65.2415 24.6054 66.1878 23.9122 66.1878 22.9604C66.1878 22.1341 65.6171 21.6394 64.2657 21.3004L62.9143 20.968C60.9996 20.4959 60.1107 19.5817 60.1107 18.0983C60.1107 16.2616 61.6786 15 63.9048 15C66.1082 15 67.6187 16.2616 67.6695 18.0983H66.0942C65.9999 17.0359 65.1398 16.3947 63.8827 16.3947C62.6256 16.3947 61.7655 17.0435 61.7655 17.9878C61.7655 18.7404 62.3149 19.1832 63.6588 19.5222L64.8077 19.8102C66.947 20.3268 67.8359 21.204 67.8359 22.7611C67.8359 24.7527 66.2821 26 63.8105 26C61.4981 26 59.9368 24.782 59.8359 22.8565L61.4334 22.8566Z" fill="black"/>
<path d="M71.432 17V18.9047H72.8359V20.213H71.432V24.6501C71.432 25.3394 71.7131 25.6606 72.3303 25.6606C72.497 25.6574 72.6633 25.6447 72.8288 25.6224V26.9228C72.5513 26.9794 72.2693 27.005 71.9871 26.9992C70.4924 26.9992 69.9094 26.3871 69.9094 24.8263V20.213H68.8359V18.9047H69.9094V17H71.432Z" fill="black"/>
<path d="M73.8359 22C73.8359 19.5436 75.2033 18 77.3355 18C79.4749 18 80.8359 19.5436 80.8359 22C80.8359 24.4632 79.4821 26 77.3355 26C75.1897 26 73.8359 24.4632 73.8359 22ZM79.2926 22C79.2926 20.3149 78.5628 19.3204 77.3355 19.3204C76.1083 19.3204 75.3792 20.3225 75.3792 22C75.3792 23.6917 76.1083 24.6788 77.3355 24.6788C78.5628 24.6788 79.2926 23.6917 79.2926 22V22Z" fill="black"/>
<path d="M82.8359 18.0843H84.3672V19.4316H84.4044C84.5079 19.0108 84.7516 18.6389 85.0942 18.3785C85.4369 18.118 85.8576 17.9848 86.2856 18.0014C86.4705 18.0008 86.6554 18.0211 86.8359 18.062V19.5819C86.6027 19.5096 86.359 19.4764 86.1145 19.4837C85.8813 19.4741 85.6487 19.5157 85.4329 19.6056C85.2171 19.6956 85.0229 19.8317 84.8641 20.0048C84.7051 20.1778 84.585 20.3836 84.5121 20.608C84.4392 20.8324 84.4151 21.0701 84.4414 21.3049V26H82.8359V18.0843Z" fill="black"/>
<path d="M93.7479 23.6101C93.5363 25.0274 92.1822 26 90.4489 26C88.2197 26 86.8359 24.4783 86.8359 22.037C86.8359 19.5882 88.2273 18 90.3829 18C92.503 18 93.8359 19.4838 93.8359 21.8509V22.4H88.4237V22.4968C88.3991 22.7842 88.4338 23.0736 88.5278 23.346C88.6208 23.6183 88.7698 23.8673 88.9645 24.0765C89.16 24.2856 89.3961 24.4502 89.6585 24.5591C89.92 24.668 90.2026 24.7188 90.4853 24.7082C90.8569 24.7437 91.2301 24.656 91.5483 24.4581C91.8674 24.2603 92.1153 23.9629 92.255 23.6101H93.7479ZM88.4313 21.28H92.2618C92.2761 21.0217 92.2381 20.7631 92.1492 20.5206C92.0603 20.2781 91.9241 20.0569 91.7472 19.8708C91.5712 19.6848 91.3587 19.5379 91.1234 19.4394C90.889 19.3409 90.6368 19.293 90.3829 19.2985C90.1265 19.2969 89.8726 19.3471 89.6356 19.446C89.3986 19.5449 89.1828 19.6907 89.0017 19.8749C88.8206 20.0592 88.6767 20.2782 88.5785 20.5194C88.4804 20.7605 88.4304 21.019 88.4313 21.28V21.28Z" fill="black"/>
<path d="M30.9906 10.9306C30.9458 10.9306 30.9077 10.9167 30.8763 10.8889C30.8494 10.8565 30.8359 10.8171 30.8359 10.7708V6.23611C30.8359 6.18519 30.8494 6.14583 30.8763 6.11806C30.9077 6.08565 30.9458 6.06944 30.9906 6.06944H32.5174C33.1945 6.06944 33.6833 6.22685 33.9837 6.54167C34.2841 6.85185 34.441 7.32176 34.4545 7.95139C34.459 8.08565 34.4612 8.2662 34.4612 8.49306C34.4612 8.71991 34.459 8.90278 34.4545 9.04167C34.441 9.48148 34.3693 9.84028 34.2393 10.1181C34.1137 10.3912 33.9142 10.5949 33.6407 10.7292C33.3671 10.8634 33.0039 10.9306 32.5511 10.9306H30.9906ZM32.5174 10.3403C32.8268 10.3403 33.0712 10.2963 33.2505 10.2083C33.4344 10.1204 33.5667 9.98148 33.6474 9.79167C33.7326 9.59722 33.7797 9.33796 33.7886 9.01389C33.7976 8.73611 33.8021 8.5625 33.8021 8.49306C33.8021 8.41898 33.7976 8.24769 33.7886 7.97917C33.7797 7.52083 33.6743 7.1875 33.4725 6.97917C33.2707 6.7662 32.9412 6.65972 32.4838 6.65972H31.4951V10.3403H32.5174Z" fill="black"/>
<path d="M36.8183 11C36.3251 11 35.9417 10.8565 35.6682 10.5694C35.3992 10.2824 35.2557 9.90046 35.2377 9.42361L35.231 9.125L35.2377 8.82639C35.2557 8.35417 35.4014 7.97454 35.6749 7.6875C35.9485 7.39583 36.3296 7.25 36.8183 7.25C37.3071 7.25 37.6882 7.39583 37.9618 7.6875C38.2353 7.97454 38.381 8.35417 38.3989 8.82639C38.4034 8.87731 38.4057 8.97685 38.4057 9.125C38.4057 9.27315 38.4034 9.37269 38.3989 9.42361C38.381 9.90046 38.2353 10.2824 37.9618 10.5694C37.6927 10.8565 37.3116 11 36.8183 11ZM36.8183 10.4653C37.1008 10.4653 37.3228 10.3727 37.4842 10.1875C37.6501 10.0023 37.7398 9.73611 37.7533 9.38889C37.7577 9.34259 37.76 9.25463 37.76 9.125C37.76 8.99537 37.7577 8.90741 37.7533 8.86111C37.7398 8.51389 37.6501 8.24769 37.4842 8.0625C37.3228 7.87731 37.1008 7.78472 36.8183 7.78472C36.5359 7.78472 36.3117 7.87731 36.1458 8.0625C35.9798 8.24769 35.8924 8.51389 35.8834 8.86111L35.8767 9.125L35.8834 9.38889C35.8924 9.73611 35.9798 10.0023 36.1458 10.1875C36.3117 10.3727 36.5359 10.4653 36.8183 10.4653Z" fill="black"/>
<path d="M40.0841 10.9306C40.0258 10.9306 39.981 10.9167 39.9496 10.8889C39.9182 10.8611 39.8913 10.8171 39.8689 10.7569L38.9138 7.53472L38.9003 7.46528C38.9003 7.42361 38.9138 7.38889 38.9407 7.36111C38.9721 7.33333 39.0057 7.31944 39.0416 7.31944H39.3375C39.3824 7.31944 39.4182 7.33333 39.4451 7.36111C39.4765 7.38426 39.4967 7.40972 39.5057 7.4375L40.2523 10.0556L41.0526 7.46528C41.0616 7.42824 41.0818 7.39583 41.1132 7.36806C41.1446 7.33565 41.1872 7.31944 41.241 7.31944H41.4696C41.5235 7.31944 41.5661 7.33565 41.5974 7.36806C41.6288 7.39583 41.649 7.42824 41.658 7.46528L42.4584 10.0556L43.2049 7.4375C43.2094 7.41435 43.2251 7.38889 43.252 7.36111C43.2834 7.33333 43.3215 7.31944 43.3664 7.31944H43.669C43.7049 7.31944 43.7363 7.33333 43.7632 7.36111C43.7901 7.38889 43.8035 7.42361 43.8035 7.46528L43.7901 7.53472L42.8417 10.7569C42.8193 10.8171 42.7924 10.8611 42.761 10.8889C42.7296 10.9167 42.6826 10.9306 42.6198 10.9306H42.3575C42.2364 10.9306 42.1624 10.8727 42.1355 10.7569L41.3553 8.27083L40.5751 10.7569C40.5392 10.8727 40.463 10.9306 40.3464 10.9306H40.0841Z" fill="black"/>
<path d="M44.7032 10.9306C44.6584 10.9306 44.6202 10.9167 44.5889 10.8889C44.5619 10.8565 44.5485 10.8171 44.5485 10.7708V7.47917C44.5485 7.43287 44.5619 7.39583 44.5889 7.36806C44.6202 7.33565 44.6584 7.31944 44.7032 7.31944H45.0193C45.0642 7.31944 45.1 7.33565 45.1269 7.36806C45.1583 7.39583 45.174 7.43287 45.174 7.47917V7.78472C45.304 7.61343 45.4565 7.48148 45.6314 7.38889C45.8107 7.2963 46.0327 7.25 46.2972 7.25C46.7277 7.25 47.0618 7.39352 47.2994 7.68056C47.5415 7.96296 47.6626 8.34028 47.6626 8.8125V10.7708C47.6626 10.8171 47.6469 10.8565 47.6155 10.8889C47.5886 10.9167 47.5528 10.9306 47.5079 10.9306H47.1716C47.1268 10.9306 47.0887 10.9167 47.0573 10.8889C47.0304 10.8565 47.0169 10.8171 47.0169 10.7708V8.84722C47.0169 8.51852 46.9384 8.26389 46.7815 8.08333C46.6291 7.90278 46.4071 7.8125 46.1156 7.8125C45.8332 7.8125 45.609 7.90509 45.443 8.09028C45.2771 8.27083 45.1942 8.52315 45.1942 8.84722V10.7708C45.1942 10.8171 45.1785 10.8565 45.1471 10.8889C45.1202 10.9167 45.0843 10.9306 45.0395 10.9306H44.7032Z" fill="black"/>
<path d="M48.7888 10.9306C48.744 10.9306 48.7059 10.9167 48.6745 10.8889C48.6476 10.8565 48.6341 10.8171 48.6341 10.7708V6.15972C48.6341 6.11343 48.6476 6.07639 48.6745 6.04861C48.7059 6.0162 48.744 6 48.7888 6H49.105C49.1498 6 49.1857 6.0162 49.2126 6.04861C49.244 6.07639 49.2597 6.11343 49.2597 6.15972V10.7708C49.2597 10.8171 49.244 10.8565 49.2126 10.8889C49.1857 10.9167 49.1498 10.9306 49.105 10.9306H48.7888Z" fill="black"/>
<path d="M51.6955 11C51.2023 11 50.8189 10.8565 50.5454 10.5694C50.2764 10.2824 50.1329 9.90046 50.1149 9.42361L50.1082 9.125L50.1149 8.82639C50.1329 8.35417 50.2786 7.97454 50.5521 7.6875C50.8257 7.39583 51.2068 7.25 51.6955 7.25C52.1843 7.25 52.5654 7.39583 52.839 7.6875C53.1125 7.97454 53.2582 8.35417 53.2761 8.82639C53.2806 8.87731 53.2829 8.97685 53.2829 9.125C53.2829 9.27315 53.2806 9.37269 53.2761 9.42361C53.2582 9.90046 53.1125 10.2824 52.839 10.5694C52.5699 10.8565 52.1888 11 51.6955 11ZM51.6955 10.4653C51.978 10.4653 52.2 10.3727 52.3614 10.1875C52.5273 10.0023 52.617 9.73611 52.6304 9.38889C52.6349 9.34259 52.6372 9.25463 52.6372 9.125C52.6372 8.99537 52.6349 8.90741 52.6304 8.86111C52.617 8.51389 52.5273 8.24769 52.3614 8.0625C52.2 7.87731 51.978 7.78472 51.6955 7.78472C51.4131 7.78472 51.1889 7.87731 51.0229 8.0625C50.857 8.24769 50.7696 8.51389 50.7606 8.86111L50.7539 9.125L50.7606 9.38889C50.7696 9.73611 50.857 10.0023 51.0229 10.1875C51.1889 10.3727 51.4131 10.4653 51.6955 10.4653Z" fill="black"/>
<path d="M55.1003 11C54.8806 11 54.6766 10.9537 54.4883 10.8611C54.3 10.7685 54.1497 10.6435 54.0376 10.4861C53.93 10.3241 53.8762 10.1458 53.8762 9.95139C53.8762 9.64583 53.9973 9.39583 54.2394 9.20139C54.486 9.00231 54.8178 8.87269 55.2349 8.8125L56.237 8.66667V8.46528C56.237 7.99306 55.9747 7.75694 55.4501 7.75694C55.2528 7.75694 55.0914 7.80093 54.9658 7.88889C54.8403 7.97222 54.7461 8.07176 54.6833 8.1875C54.6699 8.22917 54.6519 8.25926 54.6295 8.27778C54.6116 8.2963 54.5847 8.30556 54.5488 8.30556H54.2596C54.2192 8.30556 54.1834 8.29167 54.152 8.26389C54.1251 8.23148 54.1116 8.19444 54.1116 8.15278C54.1161 8.04167 54.1654 7.91667 54.2596 7.77778C54.3582 7.63426 54.5085 7.51157 54.7102 7.40972C54.912 7.30324 55.1609 7.25 55.4568 7.25C55.959 7.25 56.32 7.37269 56.5397 7.61806C56.7594 7.8588 56.8693 8.15972 56.8693 8.52083V10.7708C56.8693 10.8171 56.8536 10.8565 56.8222 10.8889C56.7953 10.9167 56.7594 10.9306 56.7146 10.9306H56.4052C56.3603 10.9306 56.3222 10.9167 56.2908 10.8889C56.2639 10.8565 56.2505 10.8171 56.2505 10.7708V10.4722C56.1518 10.6204 56.0083 10.7454 55.82 10.8472C55.6317 10.9491 55.3918 11 55.1003 11ZM55.2416 10.4792C55.533 10.4792 55.7707 10.3819 55.9545 10.1875C56.1429 9.98843 56.237 9.7037 56.237 9.33333V9.13889L55.4568 9.25694C55.1385 9.30324 54.8986 9.38194 54.7371 9.49306C54.5757 9.59954 54.495 9.73611 54.495 9.90278C54.495 10.088 54.569 10.2315 54.717 10.3333C54.8649 10.4306 55.0398 10.4792 55.2416 10.4792Z" fill="black"/>
<path d="M59.1141 11C58.6478 11 58.2958 10.8426 58.0581 10.5278C57.8205 10.213 57.6949 9.81481 57.6815 9.33333L57.6747 9.125L57.6815 8.91667C57.6949 8.43981 57.8205 8.04398 58.0581 7.72917C58.2958 7.40972 58.6478 7.25 59.1141 7.25C59.5759 7.25 59.9391 7.41898 60.2037 7.75694V6.15972C60.2037 6.11343 60.2171 6.07639 60.2441 6.04861C60.2754 6.0162 60.3136 6 60.3584 6H60.6812C60.7261 6 60.762 6.0162 60.7889 6.04861C60.8202 6.07639 60.8359 6.11343 60.8359 6.15972V10.7708C60.8359 10.8171 60.8202 10.8565 60.7889 10.8889C60.762 10.9167 60.7261 10.9306 60.6812 10.9306H60.3786C60.3337 10.9306 60.2956 10.9167 60.2642 10.8889C60.2373 10.8565 60.2239 10.8171 60.2239 10.7708V10.4792C59.9638 10.8264 59.5939 11 59.1141 11ZM59.2553 10.4375C59.5647 10.4375 59.7957 10.3333 59.9481 10.125C60.1051 9.91204 60.1902 9.65972 60.2037 9.36806C60.2082 9.31713 60.2104 9.22917 60.2104 9.10417C60.2104 8.97454 60.2082 8.88426 60.2037 8.83333C60.1947 8.56019 60.1095 8.32176 59.9481 8.11806C59.7867 7.91435 59.5558 7.8125 59.2553 7.8125C58.937 7.8125 58.7038 7.91435 58.5558 8.11806C58.4124 8.32176 58.3339 8.59028 58.3204 8.92361L58.3137 9.125C58.3137 10 58.6276 10.4375 59.2553 10.4375Z" fill="black"/>
</svg>
