<svg width="109" height="35" viewBox="0 0 109 35" fill="none" xmlns="http://www.w3.org/2000/svg">
<path opacity="0.5" d="M8.64247 33.9983C8.36858 33.9983 8.10131 33.995 7.82958 33.9891C7.26665 33.982 6.70504 33.935 6.14935 33.8484C5.6312 33.7627 5.12925 33.6034 4.66006 33.3757C4.19517 33.1498 3.77116 32.8537 3.40425 32.4987C3.03204 32.1477 2.72217 31.7408 2.48689 31.2939C2.24902 30.8441 2.0844 30.3619 1.99877 29.8642C1.90629 29.3295 1.85626 28.7887 1.8491 28.2467C1.8434 28.0647 1.83594 27.459 1.83594 27.459V7.53008C1.83594 7.53008 1.84388 6.93359 1.84914 6.75836C1.856 6.21716 1.90574 5.67727 1.99794 5.14332C2.08373 4.64426 2.24848 4.16072 2.48647 3.70942C2.72088 3.26282 3.02905 2.85555 3.39901 2.50341C3.76856 2.14793 4.19394 1.85028 4.65962 1.62133C5.12773 1.39433 5.62873 1.23615 6.14584 1.15207C6.70335 1.06457 7.26691 1.01726 7.83179 1.01053L8.64291 1H101.025L101.846 1.01096C102.405 1.01734 102.963 1.06423 103.516 1.15123C104.039 1.23636 104.545 1.39565 105.018 1.62386C105.951 2.08527 106.71 2.81526 107.189 3.71153C107.423 4.15971 107.585 4.63931 107.67 5.13405C107.763 5.67238 107.816 6.21653 107.827 6.76215C107.829 7.00647 107.829 7.2689 107.829 7.53008C107.836 7.85359 107.836 8.16151 107.836 8.47196V26.5271C107.836 26.8406 107.836 27.1464 107.829 27.4547C107.829 27.7353 107.829 27.9923 107.825 28.2568C107.815 28.7927 107.764 29.3271 107.671 29.8558C107.587 30.3571 107.424 30.8429 107.186 31.2965C106.949 31.7385 106.641 32.142 106.273 32.4919C105.906 32.8489 105.481 33.1468 105.015 33.374C104.543 33.6035 104.038 33.7634 103.516 33.8484C102.96 33.9355 102.399 33.9825 101.835 33.9891C101.573 33.995 101.297 33.9983 101.029 33.9983L100.055 34L8.64247 33.9983Z" fill="white"/>
<path fill-rule="evenodd" clip-rule="evenodd" d="M39.133 20.9409V22.4255H42.5451C42.4436 23.2587 42.1758 23.8683 41.768 24.2925C41.2716 24.8081 40.4945 25.3778 39.133 25.3778C37.0321 25.3778 35.3901 23.6163 35.3901 21.4316C35.3901 19.2451 37.0321 17.4846 39.133 17.4846C40.2667 17.4846 41.0933 17.9487 41.7049 18.5441L42.7114 17.497C41.8576 16.6496 40.7248 16 39.133 16C36.255 16 33.8359 18.4376 33.8359 21.4316C33.8359 24.4247 36.2559 26.8614 39.133 26.8614C40.6864 26.8614 41.8576 26.3317 42.7746 25.3387C43.7163 24.3591 44.0097 22.981 44.0097 21.8682C44.0097 21.5239 43.9841 21.2062 43.933 20.9409H39.133ZM47.8884 19.8689C46.0297 19.8689 44.5138 21.3383 44.5138 23.3642C44.5138 25.3777 46.0297 26.8605 47.8884 26.8605C49.748 26.8605 51.2629 25.3768 51.2629 23.3642C51.2621 21.3383 49.7471 19.8689 47.8884 19.8689ZM51.8744 23.3642C51.8744 21.3383 53.3885 19.8689 55.2481 19.8689C57.1076 19.8689 58.6226 21.3383 58.6226 23.3642C58.6226 25.3768 57.1076 26.8605 55.2481 26.8605C53.3885 26.8605 51.8744 25.3777 51.8744 23.3642ZM53.351 23.3644C53.351 24.6103 54.2304 25.4843 55.2481 25.4843C56.2666 25.4843 57.1461 24.6103 57.1461 23.3644C57.1461 22.107 56.2666 21.2454 55.2481 21.2454C54.2296 21.2454 53.351 22.107 53.351 23.3644ZM45.9913 23.3644C45.9913 24.6103 46.8699 25.4843 47.8884 25.4843C48.9068 25.4843 49.7846 24.6103 49.7855 23.3644C49.7855 22.107 48.9068 21.2454 47.8884 21.2454C46.8699 21.2454 45.9913 22.107 45.9913 23.3644ZM72.0625 19.8689C73.8069 19.8689 74.6599 21.3117 74.9397 22.0935L75.0932 22.4902L70.5996 24.4237C70.9425 25.1257 71.4773 25.4833 72.2272 25.4833C72.9795 25.4833 73.5015 25.099 73.8829 24.516L75.0293 25.3111C74.6599 25.8808 73.7685 26.8605 72.2272 26.8605C70.3182 26.8605 68.8919 25.3244 68.8919 23.3642C68.8919 21.286 70.3318 19.8689 72.0625 19.8689V19.8689ZM70.3565 23.2596C70.3182 21.9084 71.3631 21.2186 72.1146 21.2186C72.7014 21.2186 73.1962 21.524 73.3625 21.9608L70.3565 23.2596ZM68.1779 26.6507H66.7022V16.3714H68.1779V26.6507ZM64.2831 20.6497H64.2311C63.8993 20.2398 63.2629 19.8689 62.4619 19.8689C60.7807 19.8689 59.2402 21.4049 59.2402 23.3784C59.2402 25.3386 60.7816 26.8614 62.4619 26.8614C63.2629 26.8614 63.9001 26.4904 64.2311 26.0663H64.2831V26.5694C64.2831 27.9085 63.5948 28.6219 62.4876 28.6219C61.5842 28.6219 61.0229 27.9466 60.7952 27.3778L59.5088 27.9333C59.8791 28.8606 60.8583 30 62.4876 30C64.22 30 65.6847 28.9405 65.6847 26.3573V20.0801H64.2831V20.6497ZM60.7184 23.3785C60.7184 24.5969 61.5714 25.4842 62.5891 25.4842C63.5956 25.4842 64.3854 24.5969 64.3846 23.3785C64.3846 22.1468 63.5956 21.2462 62.5891 21.2462C61.5714 21.2462 60.7184 22.1459 60.7184 23.3785ZM81.8586 16.3714H78.3245V26.6498H79.7994V22.7551H81.8586C83.4929 22.7551 85.1008 21.5243 85.1008 19.5624C85.1008 17.603 83.4929 16.3714 81.8586 16.3714V16.3714ZM79.7992 21.3259H81.8968C82.9997 21.3259 83.6241 20.3614 83.6241 19.5636C83.6241 18.7525 82.9997 17.8031 81.8968 17.8031H79.7992V21.3259ZM91.0094 19.8494C89.9415 19.8494 88.8371 20.3393 88.3793 21.4227L89.6885 21.9915C89.966 21.4227 90.4881 21.2382 91.034 21.2382C91.7981 21.2382 92.5741 21.7138 92.5851 22.5595V22.6651C92.3194 22.5062 91.7474 22.2693 91.0475 22.2693C89.636 22.2693 88.1999 23.075 88.1999 24.5827C88.1999 25.9581 89.3559 26.8437 90.654 26.8437C91.6433 26.8437 92.1916 26.3814 92.5335 25.8383H92.5851V26.6325H94.0093V22.6926C94.0102 20.8672 92.7011 19.8494 91.0094 19.8494V19.8494ZM89.6766 24.6107C89.6766 25.2321 90.3511 25.4834 90.8326 25.4834C91.6856 25.4834 92.4726 24.8078 92.5868 23.857C92.1933 23.6581 91.8878 23.5125 91.2405 23.5125C90.5161 23.5125 89.6766 23.8162 89.6766 24.6107ZM99.1951 20.074L97.506 24.5295H97.4544L95.6993 20.074H94.1117L96.7427 26.3025L95.2432 29.7659H96.7808L100.836 20.074H99.1951ZM87.3884 26.6507H85.9136V16.3714H87.3884V26.6507Z" fill="black"/>
<path d="M9.19415 6.05855C8.9687 6.30393 8.83594 6.68535 8.83594 7.17956V24.8213C8.83594 25.3155 8.9687 25.6978 9.19415 25.9423L9.25094 26L18.8359 16.1158V15.8833L9.25177 6L9.19415 6.05855Z" fill="url(#paint0_linear_3140_129)"/>
<path d="M22.0858 20L18.8359 16.6192V16.3808L22.0875 13L22.1605 13.0433L26.0109 15.3183C27.1109 15.9674 27.1109 17.0308 26.0109 17.6817L22.1605 19.9558L22.0858 20Z" fill="url(#paint1_linear_3140_129)"/>
<path d="M21.8359 19.2839L18.5449 16L8.83594 25.6907C9.19497 26.07 9.78774 26.117 10.4554 25.7393L21.8359 19.2839Z" fill="url(#paint2_linear_3140_129)"/>
<path d="M21.8359 12.7158L10.4554 6.2614C9.78774 5.88287 9.19497 5.92987 8.83594 6.30924L18.5449 16L21.8359 12.7158Z" fill="url(#paint3_linear_3140_129)"/>
<path d="M33.9906 10.9306C33.9458 10.9306 33.9077 10.9167 33.8763 10.8889C33.8494 10.8565 33.8359 10.8171 33.8359 10.7708V6.23611C33.8359 6.18519 33.8494 6.14583 33.8763 6.11806C33.9077 6.08565 33.9458 6.06944 33.9906 6.06944H35.5174C36.1945 6.06944 36.6833 6.22685 36.9837 6.54167C37.2841 6.85185 37.441 7.32176 37.4545 7.95139C37.459 8.08565 37.4612 8.2662 37.4612 8.49306C37.4612 8.71991 37.459 8.90278 37.4545 9.04167C37.441 9.48148 37.3693 9.84028 37.2393 10.1181C37.1137 10.3912 36.9142 10.5949 36.6407 10.7292C36.3671 10.8634 36.0039 10.9306 35.5511 10.9306H33.9906ZM35.5174 10.3403C35.8268 10.3403 36.0712 10.2963 36.2505 10.2083C36.4344 10.1204 36.5667 9.98148 36.6474 9.79167C36.7326 9.59722 36.7797 9.33796 36.7886 9.01389C36.7976 8.73611 36.8021 8.5625 36.8021 8.49306C36.8021 8.41898 36.7976 8.24769 36.7886 7.97917C36.7797 7.52083 36.6743 7.1875 36.4725 6.97917C36.2707 6.7662 35.9412 6.65972 35.4838 6.65972H34.4951V10.3403H35.5174Z" fill="black"/>
<path d="M39.8183 11C39.3251 11 38.9417 10.8565 38.6682 10.5694C38.3992 10.2824 38.2557 9.90046 38.2377 9.42361L38.231 9.125L38.2377 8.82639C38.2557 8.35417 38.4014 7.97454 38.6749 7.6875C38.9485 7.39583 39.3296 7.25 39.8183 7.25C40.3071 7.25 40.6882 7.39583 40.9618 7.6875C41.2353 7.97454 41.381 8.35417 41.3989 8.82639C41.4034 8.87731 41.4057 8.97685 41.4057 9.125C41.4057 9.27315 41.4034 9.37269 41.3989 9.42361C41.381 9.90046 41.2353 10.2824 40.9618 10.5694C40.6927 10.8565 40.3116 11 39.8183 11ZM39.8183 10.4653C40.1008 10.4653 40.3228 10.3727 40.4842 10.1875C40.6501 10.0023 40.7398 9.73611 40.7533 9.38889C40.7577 9.34259 40.76 9.25463 40.76 9.125C40.76 8.99537 40.7577 8.90741 40.7533 8.86111C40.7398 8.51389 40.6501 8.24769 40.4842 8.0625C40.3228 7.87731 40.1008 7.78472 39.8183 7.78472C39.5359 7.78472 39.3117 7.87731 39.1458 8.0625C38.9798 8.24769 38.8924 8.51389 38.8834 8.86111L38.8767 9.125L38.8834 9.38889C38.8924 9.73611 38.9798 10.0023 39.1458 10.1875C39.3117 10.3727 39.5359 10.4653 39.8183 10.4653Z" fill="black"/>
<path d="M43.0841 10.9306C43.0258 10.9306 42.981 10.9167 42.9496 10.8889C42.9182 10.8611 42.8913 10.8171 42.8689 10.7569L41.9138 7.53472L41.9003 7.46528C41.9003 7.42361 41.9138 7.38889 41.9407 7.36111C41.9721 7.33333 42.0057 7.31944 42.0416 7.31944H42.3375C42.3824 7.31944 42.4182 7.33333 42.4451 7.36111C42.4765 7.38426 42.4967 7.40972 42.5057 7.4375L43.2523 10.0556L44.0526 7.46528C44.0616 7.42824 44.0818 7.39583 44.1132 7.36806C44.1446 7.33565 44.1872 7.31944 44.241 7.31944H44.4696C44.5235 7.31944 44.5661 7.33565 44.5974 7.36806C44.6288 7.39583 44.649 7.42824 44.658 7.46528L45.4584 10.0556L46.2049 7.4375C46.2094 7.41435 46.2251 7.38889 46.252 7.36111C46.2834 7.33333 46.3215 7.31944 46.3664 7.31944H46.669C46.7049 7.31944 46.7363 7.33333 46.7632 7.36111C46.7901 7.38889 46.8035 7.42361 46.8035 7.46528L46.7901 7.53472L45.8417 10.7569C45.8193 10.8171 45.7924 10.8611 45.761 10.8889C45.7296 10.9167 45.6826 10.9306 45.6198 10.9306H45.3575C45.2364 10.9306 45.1624 10.8727 45.1355 10.7569L44.3553 8.27083L43.5751 10.7569C43.5392 10.8727 43.463 10.9306 43.3464 10.9306H43.0841Z" fill="black"/>
<path d="M47.7032 10.9306C47.6584 10.9306 47.6202 10.9167 47.5889 10.8889C47.5619 10.8565 47.5485 10.8171 47.5485 10.7708V7.47917C47.5485 7.43287 47.5619 7.39583 47.5889 7.36806C47.6202 7.33565 47.6584 7.31944 47.7032 7.31944H48.0193C48.0642 7.31944 48.1 7.33565 48.1269 7.36806C48.1583 7.39583 48.174 7.43287 48.174 7.47917V7.78472C48.304 7.61343 48.4565 7.48148 48.6314 7.38889C48.8107 7.2963 49.0327 7.25 49.2972 7.25C49.7277 7.25 50.0618 7.39352 50.2994 7.68056C50.5415 7.96296 50.6626 8.34028 50.6626 8.8125V10.7708C50.6626 10.8171 50.6469 10.8565 50.6155 10.8889C50.5886 10.9167 50.5528 10.9306 50.5079 10.9306H50.1716C50.1268 10.9306 50.0887 10.9167 50.0573 10.8889C50.0304 10.8565 50.0169 10.8171 50.0169 10.7708V8.84722C50.0169 8.51852 49.9384 8.26389 49.7815 8.08333C49.6291 7.90278 49.4071 7.8125 49.1156 7.8125C48.8332 7.8125 48.609 7.90509 48.443 8.09028C48.2771 8.27083 48.1942 8.52315 48.1942 8.84722V10.7708C48.1942 10.8171 48.1785 10.8565 48.1471 10.8889C48.1202 10.9167 48.0843 10.9306 48.0395 10.9306H47.7032Z" fill="black"/>
<path d="M51.7888 10.9306C51.744 10.9306 51.7059 10.9167 51.6745 10.8889C51.6476 10.8565 51.6341 10.8171 51.6341 10.7708V6.15972C51.6341 6.11343 51.6476 6.07639 51.6745 6.04861C51.7059 6.0162 51.744 6 51.7888 6H52.105C52.1498 6 52.1857 6.0162 52.2126 6.04861C52.244 6.07639 52.2597 6.11343 52.2597 6.15972V10.7708C52.2597 10.8171 52.244 10.8565 52.2126 10.8889C52.1857 10.9167 52.1498 10.9306 52.105 10.9306H51.7888Z" fill="black"/>
<path d="M54.6955 11C54.2023 11 53.8189 10.8565 53.5454 10.5694C53.2764 10.2824 53.1329 9.90046 53.1149 9.42361L53.1082 9.125L53.1149 8.82639C53.1329 8.35417 53.2786 7.97454 53.5521 7.6875C53.8257 7.39583 54.2068 7.25 54.6955 7.25C55.1843 7.25 55.5654 7.39583 55.839 7.6875C56.1125 7.97454 56.2582 8.35417 56.2761 8.82639C56.2806 8.87731 56.2829 8.97685 56.2829 9.125C56.2829 9.27315 56.2806 9.37269 56.2761 9.42361C56.2582 9.90046 56.1125 10.2824 55.839 10.5694C55.5699 10.8565 55.1888 11 54.6955 11ZM54.6955 10.4653C54.978 10.4653 55.2 10.3727 55.3614 10.1875C55.5273 10.0023 55.617 9.73611 55.6304 9.38889C55.6349 9.34259 55.6372 9.25463 55.6372 9.125C55.6372 8.99537 55.6349 8.90741 55.6304 8.86111C55.617 8.51389 55.5273 8.24769 55.3614 8.0625C55.2 7.87731 54.978 7.78472 54.6955 7.78472C54.4131 7.78472 54.1889 7.87731 54.0229 8.0625C53.857 8.24769 53.7696 8.51389 53.7606 8.86111L53.7539 9.125L53.7606 9.38889C53.7696 9.73611 53.857 10.0023 54.0229 10.1875C54.1889 10.3727 54.4131 10.4653 54.6955 10.4653Z" fill="black"/>
<path d="M58.1003 11C57.8806 11 57.6766 10.9537 57.4883 10.8611C57.3 10.7685 57.1497 10.6435 57.0376 10.4861C56.93 10.3241 56.8762 10.1458 56.8762 9.95139C56.8762 9.64583 56.9973 9.39583 57.2394 9.20139C57.486 9.00231 57.8178 8.87269 58.2349 8.8125L59.237 8.66667V8.46528C59.237 7.99306 58.9747 7.75694 58.4501 7.75694C58.2528 7.75694 58.0914 7.80093 57.9658 7.88889C57.8403 7.97222 57.7461 8.07176 57.6833 8.1875C57.6699 8.22917 57.6519 8.25926 57.6295 8.27778C57.6116 8.2963 57.5847 8.30556 57.5488 8.30556H57.2596C57.2192 8.30556 57.1834 8.29167 57.152 8.26389C57.1251 8.23148 57.1116 8.19444 57.1116 8.15278C57.1161 8.04167 57.1654 7.91667 57.2596 7.77778C57.3582 7.63426 57.5085 7.51157 57.7102 7.40972C57.912 7.30324 58.1609 7.25 58.4568 7.25C58.959 7.25 59.32 7.37269 59.5397 7.61806C59.7594 7.8588 59.8693 8.15972 59.8693 8.52083V10.7708C59.8693 10.8171 59.8536 10.8565 59.8222 10.8889C59.7953 10.9167 59.7594 10.9306 59.7146 10.9306H59.4052C59.3603 10.9306 59.3222 10.9167 59.2908 10.8889C59.2639 10.8565 59.2505 10.8171 59.2505 10.7708V10.4722C59.1518 10.6204 59.0083 10.7454 58.82 10.8472C58.6317 10.9491 58.3918 11 58.1003 11ZM58.2416 10.4792C58.533 10.4792 58.7707 10.3819 58.9545 10.1875C59.1429 9.98843 59.237 9.7037 59.237 9.33333V9.13889L58.4568 9.25694C58.1385 9.30324 57.8986 9.38194 57.7371 9.49306C57.5757 9.59954 57.495 9.73611 57.495 9.90278C57.495 10.088 57.569 10.2315 57.717 10.3333C57.8649 10.4306 58.0398 10.4792 58.2416 10.4792Z" fill="black"/>
<path d="M62.1141 11C61.6478 11 61.2958 10.8426 61.0581 10.5278C60.8205 10.213 60.6949 9.81481 60.6815 9.33333L60.6747 9.125L60.6815 8.91667C60.6949 8.43981 60.8205 8.04398 61.0581 7.72917C61.2958 7.40972 61.6478 7.25 62.1141 7.25C62.5759 7.25 62.9391 7.41898 63.2037 7.75694V6.15972C63.2037 6.11343 63.2171 6.07639 63.2441 6.04861C63.2754 6.0162 63.3136 6 63.3584 6H63.6812C63.7261 6 63.762 6.0162 63.7889 6.04861C63.8202 6.07639 63.8359 6.11343 63.8359 6.15972V10.7708C63.8359 10.8171 63.8202 10.8565 63.7889 10.8889C63.762 10.9167 63.7261 10.9306 63.6812 10.9306H63.3786C63.3337 10.9306 63.2956 10.9167 63.2642 10.8889C63.2373 10.8565 63.2239 10.8171 63.2239 10.7708V10.4792C62.9638 10.8264 62.5939 11 62.1141 11ZM62.2553 10.4375C62.5647 10.4375 62.7957 10.3333 62.9481 10.125C63.1051 9.91204 63.1902 9.65972 63.2037 9.36806C63.2082 9.31713 63.2104 9.22917 63.2104 9.10417C63.2104 8.97454 63.2082 8.88426 63.2037 8.83333C63.1947 8.56019 63.1095 8.32176 62.9481 8.11806C62.7867 7.91435 62.5558 7.8125 62.2553 7.8125C61.937 7.8125 61.7038 7.91435 61.5558 8.11806C61.4124 8.32176 61.3339 8.59028 61.3204 8.92361L61.3137 9.125C61.3137 10 61.6276 10.4375 62.2553 10.4375Z" fill="black"/>
<defs>
<linearGradient id="paint0_linear_3140_129" x1="14.6391" y1="-5.99056" x2="-0.7712" y2="-2.01811" gradientUnits="userSpaceOnUse">
<stop stop-color="#00A0FF"/>
<stop offset="0.0066" stop-color="#00A1FF"/>
<stop offset="0.2601" stop-color="#00BEFF"/>
<stop offset="0.5122" stop-color="#00D2FF"/>
<stop offset="0.7604" stop-color="#00DFFF"/>
<stop offset="1" stop-color="#00E3FF"/>
</linearGradient>
<linearGradient id="paint1_linear_3140_129" x1="27.4421" y1="8.16786" x2="8.39951" y2="8.16786" gradientUnits="userSpaceOnUse">
<stop stop-color="#FFE000"/>
<stop offset="0.4087" stop-color="#FFBD00"/>
<stop offset="0.7754" stop-color="#FFA500"/>
<stop offset="1" stop-color="#FF9C00"/>
</linearGradient>
<linearGradient id="paint2_linear_3140_129" x1="8.54562" y1="10.9658" x2="-3.82736" y2="31.8365" gradientUnits="userSpaceOnUse">
<stop stop-color="#FF3A44"/>
<stop offset="1" stop-color="#C31162"/>
</linearGradient>
<linearGradient id="paint3_linear_3140_129" x1="1.25587" y1="3.62883" x2="6.78064" y2="12.949" gradientUnits="userSpaceOnUse">
<stop stop-color="#32A071"/>
<stop offset="0.0685" stop-color="#2DA771"/>
<stop offset="0.4762" stop-color="#15CF74"/>
<stop offset="0.8009" stop-color="#06E775"/>
<stop offset="1" stop-color="#00F076"/>
</linearGradient>
</defs>
</svg>
