<svg width="24" height="24" viewBox="0 0 24 24" fill="none" xmlns="http://www.w3.org/2000/svg">
<path d="M20.9459 8.28937C20.9021 7.33136 20.7499 6.67712 20.5275 6.10474C20.3015 5.5042 19.9472 4.96024 19.4894 4.51062C19.0399 4.05276 18.4958 3.69832 17.8953 3.47227C17.3227 3.24994 16.6686 3.09792 15.7106 3.05438C14.7508 3.01044 14.4442 3 12 3C9.55582 3 9.24916 3.01044 8.28937 3.05411C7.33136 3.09792 6.67726 3.25008 6.10474 3.47255C5.5042 3.69846 4.96024 4.05276 4.51062 4.51062C4.05276 4.9601 3.69832 5.50406 3.47227 6.1046C3.24994 6.67712 3.09792 7.33136 3.05438 8.28923C3.01044 9.24916 3 9.55568 3 11.9999C3 14.4442 3.01044 14.7508 3.05438 15.7106C3.09805 16.6685 3.25021 17.3227 3.47269 17.8953C3.69859 18.4957 4.0529 19.0398 4.51076 19.4892C4.96024 19.9471 5.50433 20.3014 6.10487 20.5273C6.67726 20.7499 7.3315 20.9019 8.28951 20.9458C9.24944 20.9896 9.55595 20.9999 12.0001 20.9999C14.4443 20.9999 14.751 20.9896 15.7108 20.9458C16.6688 20.9019 17.3229 20.7499 17.8954 20.5273C19.1043 20.0598 20.06 19.1042 20.5275 17.8953C20.7501 17.3227 20.9021 16.6685 20.9459 15.7106C20.9896 14.7507 21 14.4442 21 12C21 9.55568 20.9896 9.24916 20.9459 8.28937ZM19.3258 15.6369C19.2859 16.5144 19.1392 16.991 19.016 17.308C18.7132 18.093 18.0929 18.7133 17.3079 19.0161C16.9908 19.1393 16.5143 19.286 15.6367 19.326C14.6879 19.3694 14.4033 19.3784 12 19.3784C9.5966 19.3784 9.31206 19.3694 8.36311 19.326C7.48572 19.286 7.00919 19.1393 6.69196 19.0161C6.30112 18.8718 5.94749 18.6418 5.65718 18.3428C5.35822 18.0525 5.12819 17.699 4.98386 17.308C4.86067 16.991 4.714 16.5144 4.67404 15.6369C4.63078 14.6879 4.62158 14.4033 4.62158 12.0001C4.62158 9.59688 4.63078 9.31233 4.67404 8.36325C4.71414 7.48572 4.86067 7.00919 4.98386 6.69209C5.12819 6.30112 5.35835 5.94749 5.65718 5.65718C5.94749 5.35822 6.30112 5.12819 6.69209 4.98399C7.00919 4.86067 7.48572 4.71414 8.36325 4.67404C9.31219 4.63078 9.59688 4.62158 12 4.62158H11.9999C14.403 4.62158 14.6877 4.63078 15.6367 4.67418C16.5143 4.71414 16.9907 4.86081 17.3079 4.98399C17.6987 5.12833 18.0524 5.35835 18.3427 5.65718C18.6416 5.94749 18.8717 6.30112 19.0159 6.69209C19.1392 7.00919 19.2859 7.48572 19.3258 8.36325C19.3691 9.31219 19.3783 9.59688 19.3783 12C19.3783 14.4033 19.3692 14.6878 19.3258 15.6369Z" fill="white"/>
<path d="M11.9995 7.37793C9.44707 7.37793 7.37793 9.4472 7.37793 11.9996C7.37793 14.552 9.44707 16.6211 11.9995 16.6211C14.552 16.6211 16.6211 14.552 16.6211 11.9996C16.6211 9.4472 14.552 7.37793 11.9995 7.37793ZM11.9995 14.9996C10.3427 14.9994 8.99951 13.6563 8.99965 11.9995C8.99965 10.3427 10.3427 8.99951 11.9996 8.99951C13.6565 8.99965 14.9996 10.3427 14.9996 11.9995C14.9996 13.6563 13.6563 14.9996 11.9995 14.9996Z" fill="white"/>
<path d="M17.8827 7.19533C17.8827 7.79175 17.3992 8.27528 16.8027 8.27528C16.2062 8.27528 15.7227 7.79175 15.7227 7.19533C15.7227 6.59877 16.2062 6.11523 16.8027 6.11523C17.3992 6.11523 17.8827 6.59877 17.8827 7.19533Z" fill="white"/>
</svg>
