<svg width="24" height="24" viewBox="0 0 24 24" fill="none" xmlns="http://www.w3.org/2000/svg">
<path d="M20.9935 22V21.9992H20.9983V15.031C20.9983 11.6221 20.2644 8.99609 16.2792 8.99609C14.3633 8.99609 13.0777 10.0474 12.5528 11.0441H12.4974V9.31434H8.71875V21.9992H12.6533V15.7181C12.6533 14.0643 12.9668 12.4652 15.0149 12.4652C17.0328 12.4652 17.0629 14.3525 17.0629 15.8242V22H20.9935Z" fill="white"/>
<path d="M2.31348 9.31543H6.25281V22.0003H2.31348V9.31543Z" fill="white"/>
<path d="M4.28158 3C3.02204 3 2 4.02204 2 5.28158C2 6.54113 3.02204 7.58454 4.28158 7.58454C5.54113 7.58454 6.56317 6.54113 6.56317 5.28158C6.56238 4.02204 5.54033 3 4.28158 3V3Z" fill="white"/>
</svg>
