<svg width="24" height="24" viewBox="0 0 24 24" fill="none" xmlns="http://www.w3.org/2000/svg">
<path d="M21 5.89415C20.2934 6.21538 19.5406 6.42831 18.7556 6.53169C19.5631 6.032 20.1794 5.24677 20.4692 4.30031C19.7163 4.76554 18.8851 5.09415 17.9992 5.27754C17.2843 4.48862 16.2654 4 15.1539 4C12.9974 4 11.2613 5.81415 11.2613 8.03815C11.2613 8.35815 11.2874 8.66585 11.3516 8.95877C8.11325 8.79508 5.24781 7.18646 3.32287 4.736C2.98681 5.34031 2.78969 6.032 2.78969 6.77662C2.78969 8.17477 3.48438 9.41415 4.51988 10.1317C3.89406 10.1194 3.28013 9.93108 2.76 9.63446C2.76 9.64677 2.76 9.66277 2.76 9.67877C2.76 11.6406 4.11019 13.2702 5.88075 13.6455C5.56369 13.7354 5.21812 13.7785 4.8595 13.7785C4.61013 13.7785 4.35837 13.7637 4.12206 13.7095C4.62675 15.3083 6.05888 16.4837 7.76175 16.5218C6.4365 17.5963 4.75381 18.2437 2.93219 18.2437C2.61275 18.2437 2.30637 18.2289 2 18.1883C3.72544 19.3415 5.77031 20 7.9755 20C15.1432 20 19.062 13.8462 19.062 8.512C19.062 8.33354 19.0561 8.16123 19.0478 7.99015C19.8208 7.42154 20.4704 6.71138 21 5.89415Z" fill="white"/>
</svg>
