<svg width="24" height="24" viewBox="0 0 24 24" fill="none" xmlns="http://www.w3.org/2000/svg">
<path fill-rule="evenodd" clip-rule="evenodd" d="M18.035 6.3982C16.4907 4.85254 14.4368 4.00087 12.2486 4C7.73991 4 4.0704 7.66814 4.06859 12.1769C4.06799 13.6181 4.44465 15.025 5.16049 16.265L4 20.5025L8.33633 19.3654C9.53112 20.0168 10.8763 20.3602 12.2453 20.3607H12.2487C16.757 20.3607 20.4268 16.6921 20.4286 12.1834C20.4295 9.99838 19.5794 7.94386 18.035 6.3982ZM12.2487 18.9797H12.2459C11.0259 18.9792 9.82937 18.6515 8.78547 18.0323L8.53719 17.885L5.96395 18.5598L6.65079 16.0517L6.4891 15.7946C5.80853 14.7124 5.44908 13.4616 5.44962 12.1774C5.4511 8.42996 8.50108 5.3811 12.2513 5.3811C14.0673 5.3818 15.7743 6.08973 17.058 7.37441C18.3417 8.65909 19.0482 10.3668 19.0475 12.1829C19.046 15.9306 15.9961 18.9797 12.2487 18.9797Z" fill="white"/>
<path d="M12.2487 18.9797H12.2459C11.0259 18.9792 9.82937 18.6515 8.78547 18.0323L8.53719 17.885L5.96395 18.5598L6.65079 16.0517L6.4891 15.7946C5.80853 14.7124 5.44908 13.4616 5.44962 12.1774C5.4511 8.42996 8.50108 5.3811 12.2513 5.3811C14.0673 5.3818 15.7743 6.08973 17.058 7.37441C18.3417 8.65909 19.0482 10.3668 19.0475 12.1829C19.046 15.9306 15.9961 18.9797 12.2487 18.9797Z" fill="white"/>
<path fill-rule="evenodd" clip-rule="evenodd" d="M9.50473 16.1378C9.56229 16.1726 9.68056 16.1725 9.9518 16.1723C11.1029 16.1713 12.0971 16.1677 12.8043 16.1677C16.1048 16.1677 16.018 12.6932 14.4749 12.2597C14.7009 11.8593 15.7307 11.1071 15.0938 9.55232C14.464 8.0149 11.7555 8.36378 9.90317 8.36469C9.21778 8.36478 9.32026 8.87123 9.32378 9.65865C9.32941 10.9059 9.32479 14.2818 9.32396 15.7412C9.32378 16.037 9.41305 16.0825 9.50473 16.1378ZM10.9328 14.8645C11.2444 14.8645 11.9795 14.8645 12.6096 14.8635C13.3231 14.8624 13.9585 14.5287 13.9427 13.8183C13.931 13.1492 13.4858 12.9296 12.868 12.8683C12.2794 12.8739 11.6063 12.8739 10.9328 12.8739V14.8645H10.9328ZM10.9328 11.53C12.1742 11.513 12.6532 11.5801 13.331 11.4103C13.7967 11.1459 14.0001 10.1655 13.3336 9.8325C12.8705 9.60114 11.5021 9.6803 10.9328 9.70401V11.53V11.53Z" fill="#000046"/>
</svg>
