<svg width="27" height="27" viewBox="0 0 27 27" fill="none" xmlns="http://www.w3.org/2000/svg">
<g filter="url(#filter0_d_3086_659)">
<path d="M22.1055 7.25273C21.5925 6.34036 21.0359 6.17255 19.9025 6.10873C18.7704 6.03191 15.9234 6 13.4569 6C10.9857 6 8.13755 6.03191 7.00655 6.10755C5.87555 6.17255 5.31773 6.33918 4.80009 7.25273C4.27182 8.16391 4 9.73336 4 12.4965C4 12.4988 4 12.5 4 12.5C4 12.5024 4 12.5035 4 12.5035V12.5059C4 15.2572 4.27182 16.8385 4.80009 17.7402C5.31773 18.6525 5.87436 18.818 7.00536 18.8948C8.13755 18.961 10.9857 19 13.4569 19C15.9234 19 18.7704 18.961 19.9037 18.896C21.0371 18.8192 21.5937 18.6537 22.1066 17.7414C22.6396 16.8396 22.9091 15.2584 22.9091 12.5071C22.9091 12.5071 22.9091 12.5035 22.9091 12.5012C22.9091 12.5012 22.9091 12.4988 22.9091 12.4976C22.9091 9.73336 22.6396 8.16391 22.1055 7.25273Z" fill="white"/>
<path d="M11.0898 16.046V8.95508L16.9989 12.5005L11.0898 16.046Z" fill="#000046"/>
</g>
<defs>
<filter id="filter0_d_3086_659" x="-3" y="0" width="32" height="32" filterUnits="userSpaceOnUse" color-interpolation-filters="sRGB">
<feFlood flood-opacity="0" result="BackgroundImageFix"/>
<feColorMatrix in="SourceAlpha" type="matrix" values="0 0 0 0 0 0 0 0 0 0 0 0 0 0 0 0 0 0 127 0" result="hardAlpha"/>
<feOffset dy="4"/>
<feGaussianBlur stdDeviation="2"/>
<feComposite in2="hardAlpha" operator="out"/>
<feColorMatrix type="matrix" values="0 0 0 0 0 0 0 0 0 0 0 0 0 0 0 0 0 0 0.25 0"/>
<feBlend mode="normal" in2="BackgroundImageFix" result="effect1_dropShadow_3086_659"/>
<feBlend mode="normal" in="SourceGraphic" in2="effect1_dropShadow_3086_659" result="shape"/>
</filter>
</defs>
</svg>
